<?xml version="1.0" encoding="UTF-8" standalone="no"?>
<svg width="20px" height="20px" viewBox="0 0 20 20" version="1.1" xmlns="http://www.w3.org/2000/svg" xmlns:xlink="http://www.w3.org/1999/xlink">
    <!-- Generator: sketchtool 3.6.1 (26313) - http://www.bohemiancoding.com/sketch -->
    <title>913648B9-8E8E-468C-80C8-5D9ECC958516</title>
    <desc>Created with sketchtool.</desc>
    <defs></defs>
    <g id="Facebook" stroke="none" stroke-width="1" fill="none" fill-rule="evenodd">
        <g id="main-1000" transform="translate(-711.000000, -21.000000)">
            <g id="manuButtons" transform="translate(587.000000, 9.000000)">
                <g id="ChatNutton" transform="translate(112.000000, 0.000000)">
                    <g id="ic_chat_white_24px" transform="translate(10.000000, 10.000000)">
                        <g id="Group">
                            <path d="M20,2 L4,2 C2.9,2 2.01,2.9 2.01,4 L2,22 L6,18 L20,18 C21.1,18 22,17.1 22,16 L22,4 C22,2.9 21.1,2 20,2 L20,2 Z M6,9 L18,9 L18,11 L6,11 L6,9 L6,9 Z M14,14 L6,14 L6,12 L14,12 L14,14 L14,14 Z M18,8 L6,8 L6,6 L18,6 L18,8 L18,8 Z" id="Shape" fill="#FFFFFF"></path>
                            <path d="M0,0 L24,0 L24,24 L0,24 L0,0 Z" id="Shape"></path>
                        </g>
                    </g>
                </g>
            </g>
        </g>
    </g>
</svg>