<?xml version="1.0" encoding="UTF-8" standalone="no"?>
<svg width="20px" height="24px" viewBox="0 0 20 24" version="1.1" xmlns="http://www.w3.org/2000/svg" xmlns:xlink="http://www.w3.org/1999/xlink">
    <!-- Generator: sketchtool 3.6.1 (26313) - http://www.bohemiancoding.com/sketch -->
    <title>D1212BC3-F7AB-4D40-8CB5-2402C7BAF905</title>
    <desc>Created with sketchtool.</desc>
    <defs></defs>
    <g id="Facebook" stroke="none" stroke-width="1" fill="none" fill-rule="evenodd">
        <g id="main-1000" transform="translate(-655.000000, -19.000000)">
            <g id="manuButtons" transform="translate(587.000000, 9.000000)">
                <g id="SoundButton" transform="translate(56.000000, 0.000000)">
                    <g id="music" transform="translate(12.000000, 10.000000)">
                        <g id="Layer_1">
                            <path d="M19,0 L6,4.628 C5.448,4.81 5,5.406 5,5.958 L5,7.958 C5,8.51 5.448,8.81 6,8.628 L19,4 C19.552,4 20,3.552 20,3 L20,1 C20,0.448 19.552,0 19,0 L19,0 Z" id="Shape" fill="#FFFFFF"></path>
                            <path d="M20,17 C20,18.657 18.433,20.382 16.5,20.853 C14.567,21.324 13,20.363 13,18.706 C13,17.049 14.567,15.324 16.5,14.853 C18.433,14.382 20,15.343 20,17 L20,17 Z" id="Shape" fill="#FFFFFF"></path>
                            <path d="M7,20 C7,21.657 5.433,23.382 3.5,23.853 C1.567,24.324 0,23.364 0,21.707 C0,20.05 1.567,18.325 3.5,17.854 C5.433,17.383 7,18.343 7,20 L7,20 Z" id="Shape" fill="#FFFFFF"></path>
                            <path d="M19,17 L19,2" id="Shape" stroke="#FFFFFF" stroke-width="2"></path>
                            <path d="M6,20.078 L6,6" id="Shape" stroke="#FFFFFF" stroke-width="2"></path>
                        </g>
                    </g>
                </g>
            </g>
        </g>
    </g>
</svg>