<?xml version="1.0" encoding="UTF-8" standalone="no"?>
<svg width="18px" height="15px" viewBox="0 0 18 15" version="1.1" xmlns="http://www.w3.org/2000/svg" xmlns:xlink="http://www.w3.org/1999/xlink">
    <!-- Generator: sketchtool 3.7.2 (28276) - http://www.bohemiancoding.com/sketch -->
    <title>C3C6766B-E5D2-43BD-A887-9F5AB3F569EE</title>
    <desc>Created with sketchtool.</desc>
    <defs></defs>
    <g id="Facebook" stroke="none" stroke-width="1" fill="none" fill-rule="evenodd">
        <g id="main-1000-bidding-copy-2" transform="translate(-501.000000, -301.000000)" fill="#3C414E">
            <g id="Group-20" transform="translate(129.000000, 176.000000)">
                <g id="Group-23" transform="translate(254.000000, 89.000000)">
                    <g id="Group-21" transform="translate(115.000000, 32.000000)">
                        <g id="group_filled" transform="translate(3.357143, 4.428571)">
                            <path d="M10.4047126,1.64620212 C11.152894,2.79730034 10.9224708,4.36646735 10.6566512,5.35444911 C10.803789,5.65216979 10.8593126,5.99597419 10.8141996,6.35304008 C10.7177273,7.12386478 10.4126941,7.56547274 10.1010675,7.81810432 C9.9591351,8.32038364 9.70927858,8.82796756 9.42957808,9.18702267 C9.42749594,9.43799657 9.42714892,9.65349594 9.44380602,9.90513291 C9.63258651,10.1080339 10.2690266,10.3483986 10.7482653,10.529418 C11.8105025,10.9302469 13.2895143,11.4938606 13.9745376,12.8571429 L17.1428571,12.8571429 L17.1209947,12.5057131 C17.0127235,10.7787342 15.5788247,10.2379966 14.4260145,9.80368243 C13.7861042,9.56232313 13.1805491,9.33422533 13.0042615,8.96588716 C12.9778877,8.65623113 12.9803169,8.41420875 12.982399,8.13571725 L12.9830931,8.02233142 C13.2593233,7.74649221 13.5091799,7.20343378 13.6073874,6.7492274 C13.8211535,6.63418388 14.0751743,6.36895388 14.1522134,5.75660411 C14.1900389,5.45059499 14.101548,5.21089338 13.9741906,5.04711385 C14.1487431,4.47023859 14.4832733,3.04396424 13.8818825,2.11996921 C13.6257796,1.72610266 13.239543,1.47612338 12.7332365,1.37599905 C12.4434724,1.03982002 11.9048928,0.857142857 11.1872493,0.857142857 C10.6955178,0.865762832 10.2700677,0.945331834 9.89805906,1.07794684 C10.093086,1.24006868 10.2634742,1.42937659 10.4047126,1.64620212 L10.4047126,1.64620212 Z" id="Shape"></path>
                            <path d="M12.836635,14.2089297 C12.8286241,14.0649561 12.8122819,13.929532 12.7908128,13.7992376 C12.7850449,13.7660655 12.7776749,13.7359713 12.7712662,13.7041671 C12.7517197,13.6053349 12.7305709,13.5085545 12.7039748,13.4165619 C12.6966048,13.3902294 12.6876326,13.3649229 12.6796217,13.3385904 C12.6485395,13.2414681 12.6148938,13.1470816 12.5764416,13.0581668 C12.5700329,13.0438036 12.5639446,13.0294405 12.5575359,13.0150773 C12.5110728,12.9124833 12.4607645,12.814335 12.4056496,12.7220004 C11.8339932,11.7651402 10.8015509,11.3267217 9.91971317,10.9546474 C9.17021519,10.6386578 8.52005212,10.3647318 8.32394577,9.88390783 C8.29318399,9.49610243 8.29574747,9.194818 8.29863139,8.84873417 L8.29959269,8.68492572 C8.58702309,8.37133 8.88310523,7.70515283 8.99077147,7.11113346 C9.21635786,6.98665272 9.49673868,6.68023858 9.58101314,5.92993432 C9.62299016,5.55717605 9.52109176,5.27025478 9.38106157,5.08182376 C9.56723443,4.40470323 9.95143626,2.64555778 9.29454406,1.51736555 C9.15098908,1.26977198 8.96641839,1.07347542 8.74659983,0.923004194 L8.74659983,0.923004194 C8.6463036,0.854266201 8.53863737,0.79510365 8.42328069,0.745858521 C8.30728314,0.697297352 8.18455645,0.657969644 8.05349844,0.630269259 C7.75100759,0.222287042 7.17101984,0 6.39236225,0 C5.2128402,0.0232546444 4.34958771,0.407982217 3.82663742,1.14323936 C3.20723614,2.01460456 3.09219989,3.33533157 3.48409217,5.07053842 C3.33957589,5.25896943 3.23319139,5.54965249 3.27580928,5.92993432 C3.36072461,6.68400036 3.6353376,6.99144044 3.86669183,7.11489524 C3.97660111,7.70720472 4.27941239,8.37338188 4.5742128,8.6869776 L4.57485367,8.84668229 C4.57773758,9.19379206 4.58030107,9.49507649 4.54921885,9.88356585 C4.35311249,10.3640478 3.70038595,10.6383158 2.94736317,10.9543054 C1.69510233,11.4802708 0.13682584,12.1344786 0.020187419,14.2089297 L8.8817842e-16,14.5714286 L12.8571429,14.5714286 L12.836635,14.2089297 L12.836635,14.2089297 Z" id="Shape"></path>
                        </g>
                    </g>
                </g>
            </g>
        </g>
    </g>
</svg>