<?xml version="1.0" encoding="UTF-8" standalone="no"?>
<svg width="35px" height="35px" viewBox="0 0 35 35" version="1.1" xmlns="http://www.w3.org/2000/svg" xmlns:xlink="http://www.w3.org/1999/xlink">
    <!-- Generator: Sketch 3.8.1 (29687) - http://www.bohemiancoding.com/sketch -->
    <title>group-2</title>
    <desc>Created with Sketch.</desc>
    <defs>
        <path d="M4.64366529,1.42405279 C7.20829081,1.42405279 9.28733057,1.24188989 9.28733057,1.01718057 L9.28733057,0.0169404795 L0,0.0169404795 L0,1.01718057 C0,1.24188989 2.07903976,1.42405279 4.64366529,1.42405279 L4.64366529,1.42405279 Z" id="path-1"></path>
        <path d="M4.64366529,1.42405279 C7.20829081,1.42405279 9.28733057,1.24188989 9.28733057,1.01718057 L9.28733057,0.0169404795 L0,0.0169404795 L0,1.01718057 C0,1.24188989 2.07903976,1.42405279 4.64366529,1.42405279 L4.64366529,1.42405279 Z" id="path-3"></path>
        <path d="M4.64366529,1.42405279 C7.20829081,1.42405279 9.28733057,1.24188989 9.28733057,1.01718057 L9.28733057,0.0169404795 L0,0.0169404795 L0,1.01718057 C0,1.24188989 2.07903976,1.42405279 4.64366529,1.42405279 L4.64366529,1.42405279 Z" id="path-5"></path>
        <ellipse id="path-7" cx="4.64366529" cy="0.406872227" rx="4.64366529" ry="0.406872227"></ellipse>
    </defs>
    <g id="Page-1" stroke="none" stroke-width="1" fill="none" fill-rule="evenodd">
        <g id="group-2" transform="translate(1.000000, 1.000000)">
            <g id="Facebook">
                <g id="main-1000-lose-fun">
                    <g id="Group-14">
                        <g id="Group-15">
                            <g id="Group-2">
                                <g id="Group-25">
                                    <g id="Oval-519">
                                        <g id="path-2-link" fill="#000000">
                                            <circle id="path-2" cx="16.5" cy="16.5004159" r="16.5"></circle>
                                        </g>
                                        <g id="path-2-link" stroke="#191C23" fill="#212633">
                                            <circle id="path-2" cx="16.5" cy="16.5004159" r="16.5"></circle>
                                        </g>
                                    </g>
                                </g>
                                <g id="trophy" transform="translate(9.000000, 8.000000)">
                                    <g id="body">
                                        <rect id="Rectangle-1384" fill="#59607C" x="4.14965834" y="14.8508363" width="7.11370001" height="3.25497781"></rect>
                                        <g id="Group-29" transform="translate(5.335275, 15.461145)">
                                            <rect id="Rectangle-1388" fill="#D5C83C" x="0" y="0" width="4.74246667" height="1.83092502"></rect>
                                            <rect id="Rectangle-1388" fill="#FFDF34" x="0" y="0.203436113" width="4.74246667" height="1.42405279"></rect>
                                            <g id="Group-30" transform="translate(0.395206, 0.406872)" fill="#42545E">
                                                <rect id="Rectangle-1393" x="3.55685001" y="0" width="0.5" height="0.5"></rect>
                                                <rect id="Rectangle-1393" x="3.55685001" y="0.813744453" width="0.5" height="0.5"></rect>
                                                <rect id="Rectangle-1393" x="0" y="0" width="0.5" height="0.5"></rect>
                                                <rect id="Rectangle-1393" x="0" y="0.813744453" width="0.5" height="0.5"></rect>
                                            </g>
                                            <polygon id="Rectangle-1388" fill="#FFE868" points="0.790411112 0.203436113 3.16164445 0.203436113 3.75445278 1.62748891 1.38321945 1.62748891"></polygon>
                                            <polygon id="Rectangle-1388" fill="#FFEE92" points="1.18561667 0.203436113 2.17363056 0.203436113 2.76643889 1.62748891 1.778425 1.62748891"></polygon>
                                            <rect id="Rectangle-1388" fill="#787C63" x="0" y="1.62748891" width="4.74246667" height="0.5"></rect>
                                        </g>
                                        <rect id="Rectangle-1385" fill="#71768C" x="3.95205556" y="17.6989419" width="7.50890557" height="1.22061668"></rect>
                                        <rect id="Rectangle-1385" fill="#59607C" x="3.95205556" y="17.902378" width="7.50890557" height="1.22061668"></rect>
                                        <polygon id="Rectangle-1384" fill="#67758F" points="10.6784385 14.443964 11.2633584 14.943964 4.14965834 14.943964 4.75241168 14.443964"></polygon>
                                        <rect id="Rectangle-1385" fill="#42545E" x="3.95205556" y="18.9195585" width="7.50890557" height="0.5"></rect>
                                        <polygon id="Rectangle-1382" fill="#FFE144" points="8.29931668 11.1889862 8.20329778 13.8336557 7.20971891 13.8336557 7.11370001 11.1889862"></polygon>
                                        <polygon id="Rectangle-1382" fill="#FFEA75" points="7.11370001 11.1889862 7.23181919 13.6302196 7.61370001 13.6302196 7.61370001 11.1889862"></polygon>
                                        <path d="M14.8237204,2.99707878 C15.2502711,3.89337402 14.7287629,5.09858981 13.5460883,5.96939097 C12.3634136,6.84019212 11.5966325,7.25512393 10.7842414,8.20793214 C9.97185037,9.16074036 10.3390022,9.71569793 10.4900249,9.8898089 C10.6410476,10.0639199 10.992427,10.3752418 10.992427,10.3752418 L11.1889217,10.2083127 C11.1889217,10.2083127 9.79285077,9.44101133 11.1889217,8.30349042 C12.5849926,7.1659695 14.0830266,6.61375905 14.9760811,5.44229698 C15.8691357,4.27083492 15.8915874,2.3690145 14.578599,1.79407233 C13.2656106,1.21913015 12.2685069,2.3169712 12.2685069,2.3169712 L12.1286457,3.14307655 C12.1286457,3.14307655 13.858206,0.968279089 14.8237204,2.99707878 L14.8237204,2.99707878 Z" id="Line" fill="#FFDA2C"></path>
                                        <path d="M4.54837693,2.79364267 C4.97492764,3.6899379 4.45341942,4.8951537 3.2707448,5.76595485 C2.08807018,6.63675601 1.32128903,7.05168781 0.508897969,8.00449603 C-0.303493097,8.95730425 0.0636587452,9.51226182 0.214681452,9.68637279 C0.365704159,9.86048376 0.717083483,10.1718057 0.717083483,10.1718057 L0.913578235,10.0048766 C0.913578235,10.0048766 -0.482492704,9.23757522 0.913578228,8.10005431 C2.30964916,6.96253339 3.80768309,6.41032293 4.70073768,5.23886087 C5.59379227,4.06739881 5.61624394,2.16557838 4.30325551,1.59063621 C2.99026708,1.01569404 1.9931634,2.11353509 1.9931634,2.11353509 L1.85330223,2.93964044 C1.85330223,2.93964044 3.58286255,0.764842976 4.54837693,2.79364267 L4.54837693,2.79364267 Z" id="Line" fill="#FFE537" transform="translate(2.667638, 5.797929) scale(-1, 1) translate(-2.667638, -5.797929) "></path>
                                        <path d="M8.2955448,13.6302196 C8.2955448,13.6302196 8.68888705,13.6302196 9.27615025,13.9650985 C9.86341345,14.2999773 9.8801389,14.6474002 9.8801389,14.6474002 L5.53287779,14.6474002 C5.53287779,14.6474002 5.55630056,14.2999773 6.13728364,13.9650985 C6.71826672,13.6302196 7.11747189,13.6302196 7.11747189,13.6302196 L8.2955448,13.6302196 L8.2955448,13.6302196 Z" id="Rectangle-1382" fill="#FFE144"></path>
                                        <path d="M7.50890557,13.6302728 C7.50890557,13.6302728 7.33207431,13.8007672 7.13682469,14.0716131 C6.94157507,14.342459 6.95929586,14.6474002 6.95929586,14.6474002 L5.92861784,14.6474002 C5.92861784,14.6474002 5.889585,14.2880322 6.47863627,13.9531709 C7.06768753,13.6183095 7.17868303,13.6302728 7.17868303,13.6302728 L7.50890557,13.6302728 L7.50890557,13.6302728 Z" id="Rectangle-1382" fill="#FFEE92"></path>
                                        <polygon id="Rectangle-1382" fill="#FFDF34" points="9.8801389 14.2405279 9.88013885 14.7405279 5.53287779 14.7405279 5.53287779 14.2405279"></polygon>
                                        <polygon id="Rectangle-1382" fill="#FFE768" points="7.70650835 14.7405279 5.67699396 14.7405279 5.53287779 14.2405279 7.56239219 14.2405279"></polygon>
                                        <polygon id="Rectangle-1382" fill="#FFEE92" points="6.71849446 14.7405279 6.05187426 14.7405279 5.92808334 14.2405279 6.59470355 14.2405279"></polygon>
                                        <polygon id="Rectangle-1382" fill="#EECF2D" points="10.0777417 14.7405279 8.46793439 14.7405279 8.29931668 14.2405279 9.909124 14.2405279"></polygon>
                                        <polygon id="Rectangle-1382" fill="#D4BC38" points="9.68253613 14.7405279 9.04242848 14.7405279 8.89212501 14.2405279 9.53223266 14.2405279"></polygon>
                                        <g id="Group-33" transform="translate(2.359247, 0.813744)">
                                            <g id="Group-28" transform="translate(0.000000, 0.636843)">
                                                <g id="mask-5" transform="translate(1.000000, 0.000000)" fill="#FFFFFF">
                                                    <path d="M4.44386692,9.11409126 C7.59862579,9.03593943 8.52064563,4.55000046 8.79011807,1.93452649 C8.90139795,0.854454511 8.90139795,0.0933557226 8.90139795,0.0933557226 L0.00510720146,0.0933557226 C0.00510720146,0.0933557226 -0.0136641123,9.22451625 4.44386692,9.11409126 L4.44386692,9.11409126 Z" id="path-4"></path>
                                                </g>
                                                <g id="Oval-533" transform="translate(1.000000, 0.000000)" fill="#FCE537">
                                                    <path d="M4.44386692,9.11409126 C7.59862579,9.03593943 8.52064563,4.55000046 8.79011807,1.93452649 C8.90139795,0.854454511 8.90139795,0.0933557226 8.90139795,0.0933557226 L0.00510720146,0.0933557226 C0.00510720146,0.0933557226 -0.0136641123,9.22451625 4.44386692,9.11409126 L4.44386692,9.11409126 Z" id="path-4"></path>
                                                </g>
                                                <g id="mask-7" transform="translate(5.000000, 0.000000)" fill="#FFFFFF">
                                                    <path d="M0.44386692,9.11409126 C4.90139795,9.00366627 4.90139795,0.0933557226 4.90139795,0.0933557226 L3.54277394,0.302549772 C3.54277394,0.302549772 4.25567903,7.46662427 0.44386692,9.11409126 L0.44386692,9.11409126 Z" id="path-6"></path>
                                                </g>
                                                <g id="Oval-533" transform="translate(5.000000, 0.000000)" fill="#FFDF3D">
                                                    <path d="M0.44386692,9.11409126 C4.90139795,9.00366627 4.90139795,0.0933557226 4.90139795,0.0933557226 L3.54277394,0.302549772 C3.54277394,0.302549772 4.25567903,7.46662427 0.44386692,9.11409126 L0.44386692,9.11409126 Z" id="path-6"></path>
                                                </g>
                                                <g id="mask-9" transform="translate(1.000000, 0.000000)" fill="#FFFFFF">
                                                    <path d="M1.44151358e-12,9.11409126 C4.45753103,9.00366627 4.45753103,0.0933557226 4.45753103,0.0933557226 L2.2287655,0.465448173 C2.2287655,0.465448173 2.61778979,6.51561762 1.44151358e-12,9.11409126 L1.44151358e-12,9.11409126 Z" id="path-8"></path>
                                                </g>
                                                <g id="Oval-533" transform="translate(2.957532, 5.000000) scale(-1, 1) translate(-2.957532, -5.000000) translate(0.457532, 0.000000)" fill="#FFE768">
                                                    <path d="M1.44151358e-12,9.11409126 C4.45753103,9.00366627 4.45753103,0.0933557226 4.45753103,0.0933557226 L2.2287655,0.465448173 C2.2287655,0.465448173 2.61778979,6.51561762 1.44151358e-12,9.11409126 L1.44151358e-12,9.11409126 Z" id="path-8"></path>
                                                </g>
                                                <g id="mask-11" transform="translate(1.000000, 0.000000)" fill="#FFFFFF">
                                                    <path d="M0.714269756,9.11409126 C4.32984466,8.957146 4.45753103,0.302887767 4.45753103,0.302887767 L3.62118335,0.446720501 C3.62118335,0.446720501 3.77993466,7.90556941 0.714269756,9.11409126 L0.714269756,9.11409126 Z" id="path-10"></path>
                                                </g>
                                                <g id="Oval-533" transform="translate(3.671800, 5.000000) scale(-1, 1) translate(-3.671800, -5.000000) translate(1.171800, 0.000000)" fill="#FFEE92">
                                                    <path d="M0.714269756,9.11409126 C4.32984466,8.957146 4.45753103,0.302887767 4.45753103,0.302887767 L3.62118335,0.446720501 C3.62118335,0.446720501 3.77993466,7.90556941 0.714269756,9.11409126 L0.714269756,9.11409126 Z" id="path-10"></path>
                                                </g>
                                            </g>
                                            <path d="M5.4397976,1.27368697 C8.00432071,1.27368697 9.88773384,1.14002625 9.88773384,0.919979269 L9.88773384,0.0941146396 L1,0 L1,0.894576855 C1,1.11462384 2.87527449,1.27368697 5.4397976,1.27368697 L5.4397976,1.27368697 Z" id="Oval-533" fill-opacity="0.970000029" fill="#000000" opacity="0.0255363806"></path>
                                        </g>
                                        <ellipse id="Oval-537" fill="#FFEF5D" cx="7.70650835" cy="5.28933895" rx="1.97602778" ry="2.03436113"></ellipse>
                                        <ellipse id="Oval-537" fill="#F0D141" cx="7.70650835" cy="5.28933895" rx="1.778425" ry="1.83092502"></ellipse>
                                        <polygon id="1" fill="#FFF17E" points="8.1017139 6.30651951 7.79782769 6.30651951 7.79782769 4.55176252 7.31130279 4.5558946 7.31130279 4.34653583 8.1017139 4.27215838"></polygon>
                                        <g id="Group-31" transform="translate(3.161644, 0.406872)">
                                            <g id="mask-13" fill="#FFFFFF">
                                                <path d="M4.64366529,1.42405279 C7.20829081,1.42405279 9.28733057,1.24188989 9.28733057,1.01718057 L9.28733057,0.0169404795 L0,0.0169404795 L0,1.01718057 C0,1.24188989 2.07903976,1.42405279 4.64366529,1.42405279 L4.64366529,1.42405279 Z" id="path-12"></path>
                                            </g>
                                            <g id="Oval-533" fill="#FDEB32">
                                                <path d="M4.64366529,1.42405279 C7.20829081,1.42405279 9.28733057,1.24188989 9.28733057,1.01718057 L9.28733057,0.0169404795 L0,0.0169404795 L0,1.01718057 C0,1.24188989 2.07903976,1.42405279 4.64366529,1.42405279 L4.64366529,1.42405279 Z" id="path-12"></path>
                                            </g>
                                            <g id="Rectangle-1397-Clipped">
                                                <mask id="mask-2" fill="white">
                                                    <use xlink:href="#path-1"></use>
                                                </mask>
                                                <g id="path-12"></g>
                                                <polygon id="Rectangle-1397" fill="#FFE768" mask="url(#mask-2)" points="2.00858589 -0.406872227 3.02847736 2.64466947 0.700202434 2.64466947 -0.319689038 -0.406872227"></polygon>
                                            </g>
                                            <g id="Rectangle-1397-Clipped">
                                                <mask id="mask-4" fill="white">
                                                    <use xlink:href="#path-3"></use>
                                                </mask>
                                                <g id="path-12"></g>
                                                <polygon id="Rectangle-1397" fill="#FFEE92" mask="url(#mask-4)" points="1.21139091 -0.406872227 2.2208834 2.64466947 1.21139094 2.64466947 0.201898458 -0.406872227"></polygon>
                                            </g>
                                            <g id="Rectangle-1397-Clipped">
                                                <mask id="mask-6" fill="white">
                                                    <use xlink:href="#path-5"></use>
                                                </mask>
                                                <g id="path-12"></g>
                                                <polygon id="Rectangle-1397" fill="#FFDF3D" mask="url(#mask-6)" points="9.55362209 -0.406872227 9.69112755 2.64466947 7.36285263 2.64466947 6.34296115 -0.406872227"></polygon>
                                            </g>
                                        </g>
                                        <g id="Group-32" transform="translate(3.161644, 0.000000)">
                                            <g id="mask-15" fill="#FFFFFF">
                                                <ellipse id="path-14" cx="4.64366529" cy="0.406872227" rx="4.64366529" ry="0.406872227"></ellipse>
                                            </g>
                                            <g id="Oval-533" fill="#FDEB32">
                                                <ellipse id="path-14" cx="4.64366529" cy="0.406872227" rx="4.64366529" ry="0.406872227"></ellipse>
                                            </g>
                                            <g id="Oval-533-Clipped">
                                                <mask id="mask-8" fill="white">
                                                    <use xlink:href="#path-7"></use>
                                                </mask>
                                                <g id="path-14"></g>
                                                <ellipse id="Oval-533" fill="#F7DE3A" mask="url(#mask-8)" cx="4.64366529" cy="0.813744453" rx="4.64366529" ry="0.406872227"></ellipse>
                                            </g>
                                        </g>
                                        <rect id="Rectangle-1382" fill="#FFDC36" x="6.71849446" y="10.3752418" width="1.97602778" height="0.813744453" rx="0.406872226"></rect>
                                        <rect id="Rectangle-1382" fill="#FFE144" x="6.71849446" y="10.5786779" width="1.97602778" height="0.5" rx="0.25"></rect>
                                    </g>
                                </g>
                            </g>
                        </g>
                    </g>
                </g>
            </g>
        </g>
    </g>
</svg>