<?xml version="1.0" encoding="UTF-8" standalone="no"?>
<svg width="40px" height="35px" viewBox="0 0 40 35" version="1.1" xmlns="http://www.w3.org/2000/svg" xmlns:xlink="http://www.w3.org/1999/xlink">
    <!-- Generator: sketchtool 3.7.1 (28215) - http://www.bohemiancoding.com/sketch -->
    <title>1A55CE5D-F28C-4CDB-BA51-C7F9D27A055A</title>
    <desc>Created with sketchtool.</desc>
    <defs></defs>
    <g id="Facebook" stroke="none" stroke-width="1" fill="none" fill-rule="evenodd">
        <g id="main-1000-lose-fun" transform="translate(-254.000000, -237.000000)" fill="#FFD422">
            <g id="Group-14" transform="translate(130.000000, 179.000000)">
                <g id="Group-15" transform="translate(121.000000, 58.000000)">
                    <g id="Group-16">
                        <g id="Group-24">
                            <g id="Group-23">
                                <g id="Group-21" transform="translate(8.747273, 0.000000)">
                                    <g id="Group-20" transform="translate(3.386041, 0.000000)">
                                        <path d="M2.13647509,0.386807993 L2.98393314,0.0397381298 C2.98393314,0.0397381298 2.99256303,0.698513585 2.13647509,1.54097205 C1.79744092,1.87460857 1.29907004,2.00188491 0.888999476,2.29537651 C0.478928914,2.58886811 0.0933290007,2.90132809 0.0933290007,2.90132809 C0.0933290007,2.90132809 0.342284442,1.60585072 1.04957355,0.909822117 C1.33685136,0.627117959 2.13647509,0.386807993 2.13647509,0.386807993 Z" id="Path-1804"></path>
                                        <path d="M2.75831627,1.75182657 L3.60577432,1.40475671 C3.60577432,1.40475671 3.61440421,2.06353216 2.75831627,2.90599063 C2.4192821,3.23962715 1.92091122,3.36690349 1.51084065,3.66039509 C1.10077009,3.95388669 0.715170178,4.26634666 0.715170178,4.26634666 C0.715170178,4.26634666 0.964125619,2.9708693 1.67141472,2.27484069 C1.95869253,1.99213654 2.75831627,1.75182657 2.75831627,1.75182657 Z" id="Path-1804" transform="translate(2.160474, 2.835552) scale(1, -1) rotate(-126.000000) translate(-2.160474, -2.835552) "></path>
                                    </g>
                                    <g id="Group-20" transform="translate(2.849093, 4.359120) rotate(-17.000000) translate(-2.849093, -4.359120) translate(0.638184, 1.871847)">
                                        <path d="M2.13647509,0.386807993 L2.98393314,0.0397381298 C2.98393314,0.0397381298 2.99256303,0.698513585 2.13647509,1.54097205 C1.79744092,1.87460857 1.29907004,2.00188491 0.888999476,2.29537651 C0.478928914,2.58886811 0.0933290007,2.90132809 0.0933290007,2.90132809 C0.0933290007,2.90132809 0.342284442,1.60585072 1.04957355,0.909822117 C1.33685136,0.627117959 2.13647509,0.386807993 2.13647509,0.386807993 Z" id="Path-1804"></path>
                                        <path d="M2.75831627,1.75182657 L3.60577432,1.40475671 C3.60577432,1.40475671 3.61440421,2.06353216 2.75831627,2.90599063 C2.4192821,3.23962715 1.92091122,3.36690349 1.51084065,3.66039509 C1.10077009,3.95388669 0.715170178,4.26634666 0.715170178,4.26634666 C0.715170178,4.26634666 0.964125619,2.9708693 1.67141472,2.27484069 C1.95869253,1.99213654 2.75831627,1.75182657 2.75831627,1.75182657 Z" id="Path-1804" transform="translate(2.160474, 2.835552) scale(1, -1) rotate(-126.000000) translate(-2.160474, -2.835552) "></path>
                                    </g>
                                </g>
                                <path d="M17.8460875,0.471924101 C17.8460875,0.471924101 17.1702446,0.155925683 16.1468643,0.536733126 C15.123484,0.91754057 14.7290591,1.6317936 14.7290591,1.6317936 C14.7290591,1.6317936 15.6237289,1.83253087 16.5569362,1.48527749 C17.4901434,1.13802411 17.8460875,0.471924101 17.8460875,0.471924101 Z" id="Path-1900"></path>
                                <g id="Group-21" transform="translate(8.095302, 8.536970) rotate(-23.000000) translate(-8.095302, -8.536970) translate(4.088029, 4.806061)">
                                    <g id="Group-20" transform="translate(3.386041, 0.000000)">
                                        <path d="M2.13647509,0.386807993 L2.98393314,0.0397381298 C2.98393314,0.0397381298 2.99256303,0.698513585 2.13647509,1.54097205 C1.79744092,1.87460857 1.29907004,2.00188491 0.888999476,2.29537651 C0.478928914,2.58886811 0.0933290007,2.90132809 0.0933290007,2.90132809 C0.0933290007,2.90132809 0.342284442,1.60585072 1.04957355,0.909822117 C1.33685136,0.627117959 2.13647509,0.386807993 2.13647509,0.386807993 Z" id="Path-1804"></path>
                                        <path d="M2.75831627,1.75182657 L3.60577432,1.40475671 C3.60577432,1.40475671 3.61440421,2.06353216 2.75831627,2.90599063 C2.4192821,3.23962715 1.92091122,3.36690349 1.51084065,3.66039509 C1.10077009,3.95388669 0.715170178,4.26634666 0.715170178,4.26634666 C0.715170178,4.26634666 0.964125619,2.9708693 1.67141472,2.27484069 C1.95869253,1.99213654 2.75831627,1.75182657 2.75831627,1.75182657 Z" id="Path-1804" transform="translate(2.160474, 2.835552) scale(1, -1) rotate(-126.000000) translate(-2.160474, -2.835552) "></path>
                                    </g>
                                    <g id="Group-20" transform="translate(2.849093, 4.359120) rotate(-17.000000) translate(-2.849093, -4.359120) translate(0.638184, 1.871847)">
                                        <path d="M2.13647509,0.386807993 L2.98393314,0.0397381298 C2.98393314,0.0397381298 2.99256303,0.698513585 2.13647509,1.54097205 C1.79744092,1.87460857 1.29907004,2.00188491 0.888999476,2.29537651 C0.478928914,2.58886811 0.0933290007,2.90132809 0.0933290007,2.90132809 C0.0933290007,2.90132809 0.342284442,1.60585072 1.04957355,0.909822117 C1.33685136,0.627117959 2.13647509,0.386807993 2.13647509,0.386807993 Z" id="Path-1804"></path>
                                        <path d="M2.75831627,1.75182657 L3.60577432,1.40475671 C3.60577432,1.40475671 3.61440421,2.06353216 2.75831627,2.90599063 C2.4192821,3.23962715 1.92091122,3.36690349 1.51084065,3.66039509 C1.10077009,3.95388669 0.715170178,4.26634666 0.715170178,4.26634666 C0.715170178,4.26634666 0.964125619,2.9708693 1.67141472,2.27484069 C1.95869253,1.99213654 2.75831627,1.75182657 2.75831627,1.75182657 Z" id="Path-1804" transform="translate(2.160474, 2.835552) scale(1, -1) rotate(-126.000000) translate(-2.160474, -2.835552) "></path>
                                    </g>
                                </g>
                                <g id="Group-21" transform="translate(8.095302, 8.536970) rotate(-23.000000) translate(-8.095302, -8.536970) translate(4.088029, 4.806061)">
                                    <g id="Group-20" transform="translate(3.386041, 0.000000)">
                                        <path d="M2.13647509,0.386807993 L2.98393314,0.0397381298 C2.98393314,0.0397381298 2.99256303,0.698513585 2.13647509,1.54097205 C1.79744092,1.87460857 1.29907004,2.00188491 0.888999476,2.29537651 C0.478928914,2.58886811 0.0933290007,2.90132809 0.0933290007,2.90132809 C0.0933290007,2.90132809 0.342284442,1.60585072 1.04957355,0.909822117 C1.33685136,0.627117959 2.13647509,0.386807993 2.13647509,0.386807993 Z" id="Path-1804"></path>
                                        <path d="M2.75831627,1.75182657 L3.60577432,1.40475671 C3.60577432,1.40475671 3.61440421,2.06353216 2.75831627,2.90599063 C2.4192821,3.23962715 1.92091122,3.36690349 1.51084065,3.66039509 C1.10077009,3.95388669 0.715170178,4.26634666 0.715170178,4.26634666 C0.715170178,4.26634666 0.964125619,2.9708693 1.67141472,2.27484069 C1.95869253,1.99213654 2.75831627,1.75182657 2.75831627,1.75182657 Z" id="Path-1804" transform="translate(2.160474, 2.835552) scale(1, -1) rotate(-126.000000) translate(-2.160474, -2.835552) "></path>
                                    </g>
                                    <g id="Group-20" transform="translate(2.849093, 4.359120) rotate(-17.000000) translate(-2.849093, -4.359120) translate(0.638184, 1.871847)">
                                        <path d="M2.13647509,0.386807993 L2.98393314,0.0397381298 C2.98393314,0.0397381298 2.99256303,0.698513585 2.13647509,1.54097205 C1.79744092,1.87460857 1.29907004,2.00188491 0.888999476,2.29537651 C0.478928914,2.58886811 0.0933290007,2.90132809 0.0933290007,2.90132809 C0.0933290007,2.90132809 0.342284442,1.60585072 1.04957355,0.909822117 C1.33685136,0.627117959 2.13647509,0.386807993 2.13647509,0.386807993 Z" id="Path-1804"></path>
                                        <path d="M2.75831627,1.75182657 L3.60577432,1.40475671 C3.60577432,1.40475671 3.61440421,2.06353216 2.75831627,2.90599063 C2.4192821,3.23962715 1.92091122,3.36690349 1.51084065,3.66039509 C1.10077009,3.95388669 0.715170178,4.26634666 0.715170178,4.26634666 C0.715170178,4.26634666 0.964125619,2.9708693 1.67141472,2.27484069 C1.95869253,1.99213654 2.75831627,1.75182657 2.75831627,1.75182657 Z" id="Path-1804" transform="translate(2.160474, 2.835552) scale(1, -1) rotate(-126.000000) translate(-2.160474, -2.835552) "></path>
                                    </g>
                                </g>
                                <g id="Group-21-Copy" transform="translate(5.634699, 14.517507) rotate(-43.000000) translate(-5.634699, -14.517507) translate(1.627426, 10.786598)">
                                    <g id="Group-20" transform="translate(3.386041, -0.000000)">
                                        <path d="M2.13647509,0.386807993 L2.98393314,0.0397381298 C2.98393314,0.0397381298 2.99256303,0.698513585 2.13647509,1.54097205 C1.79744092,1.87460857 1.29907004,2.00188491 0.888999476,2.29537651 C0.478928914,2.58886811 0.0933290007,2.90132809 0.0933290007,2.90132809 C0.0933290007,2.90132809 0.342284442,1.60585072 1.04957355,0.909822117 C1.33685136,0.627117959 2.13647509,0.386807993 2.13647509,0.386807993 Z" id="Path-1804"></path>
                                        <path d="M2.75831627,1.75182657 L3.60577432,1.40475671 C3.60577432,1.40475671 3.61440421,2.06353216 2.75831627,2.90599063 C2.4192821,3.23962715 1.92091122,3.36690349 1.51084065,3.66039509 C1.10077009,3.95388669 0.715170178,4.26634666 0.715170178,4.26634666 C0.715170178,4.26634666 0.964125619,2.9708693 1.67141472,2.27484069 C1.95869253,1.99213654 2.75831627,1.75182657 2.75831627,1.75182657 Z" id="Path-1804" transform="translate(2.160474, 2.835552) scale(1, -1) rotate(-126.000000) translate(-2.160474, -2.835552) "></path>
                                    </g>
                                    <g id="Group-20" transform="translate(2.849093, 4.359120) rotate(-17.000000) translate(-2.849093, -4.359120) translate(0.638184, 1.871847)">
                                        <path d="M2.13647509,0.386807993 L2.98393314,0.0397381298 C2.98393314,0.0397381298 2.99256303,0.698513585 2.13647509,1.54097205 C1.79744092,1.87460857 1.29907004,2.00188491 0.888999476,2.29537651 C0.478928914,2.58886811 0.0933290007,2.90132809 0.0933290007,2.90132809 C0.0933290007,2.90132809 0.342284442,1.60585072 1.04957355,0.909822117 C1.33685136,0.627117959 2.13647509,0.386807993 2.13647509,0.386807993 Z" id="Path-1804"></path>
                                        <path d="M2.75831627,1.75182657 L3.60577432,1.40475671 C3.60577432,1.40475671 3.61440421,2.06353216 2.75831627,2.90599063 C2.4192821,3.23962715 1.92091122,3.36690349 1.51084065,3.66039509 C1.10077009,3.95388669 0.715170178,4.26634666 0.715170178,4.26634666 C0.715170178,4.26634666 0.964125619,2.9708693 1.67141472,2.27484069 C1.95869253,1.99213654 2.75831627,1.75182657 2.75831627,1.75182657 Z" id="Path-1804" transform="translate(2.160474, 2.835552) scale(1, -1) rotate(-126.000000) translate(-2.160474, -2.835552) "></path>
                                    </g>
                                </g>
                                <g id="Group-21-Copy" transform="translate(5.634699, 14.517507) rotate(-43.000000) translate(-5.634699, -14.517507) translate(1.627426, 10.786598)">
                                    <g id="Group-20" transform="translate(3.386041, -0.000000)">
                                        <path d="M2.13647509,0.386807993 L2.98393314,0.0397381298 C2.98393314,0.0397381298 2.99256303,0.698513585 2.13647509,1.54097205 C1.79744092,1.87460857 1.29907004,2.00188491 0.888999476,2.29537651 C0.478928914,2.58886811 0.0933290007,2.90132809 0.0933290007,2.90132809 C0.0933290007,2.90132809 0.342284442,1.60585072 1.04957355,0.909822117 C1.33685136,0.627117959 2.13647509,0.386807993 2.13647509,0.386807993 Z" id="Path-1804"></path>
                                        <path d="M2.75831627,1.75182657 L3.60577432,1.40475671 C3.60577432,1.40475671 3.61440421,2.06353216 2.75831627,2.90599063 C2.4192821,3.23962715 1.92091122,3.36690349 1.51084065,3.66039509 C1.10077009,3.95388669 0.715170178,4.26634666 0.715170178,4.26634666 C0.715170178,4.26634666 0.964125619,2.9708693 1.67141472,2.27484069 C1.95869253,1.99213654 2.75831627,1.75182657 2.75831627,1.75182657 Z" id="Path-1804" transform="translate(2.160474, 2.835552) scale(1, -1) rotate(-126.000000) translate(-2.160474, -2.835552) "></path>
                                    </g>
                                    <g id="Group-20" transform="translate(2.849093, 4.359120) rotate(-17.000000) translate(-2.849093, -4.359120) translate(0.638184, 1.871847)">
                                        <path d="M2.13647509,0.386807993 L2.98393314,0.0397381298 C2.98393314,0.0397381298 2.99256303,0.698513585 2.13647509,1.54097205 C1.79744092,1.87460857 1.29907004,2.00188491 0.888999476,2.29537651 C0.478928914,2.58886811 0.0933290007,2.90132809 0.0933290007,2.90132809 C0.0933290007,2.90132809 0.342284442,1.60585072 1.04957355,0.909822117 C1.33685136,0.627117959 2.13647509,0.386807993 2.13647509,0.386807993 Z" id="Path-1804"></path>
                                        <path d="M2.75831627,1.75182657 L3.60577432,1.40475671 C3.60577432,1.40475671 3.61440421,2.06353216 2.75831627,2.90599063 C2.4192821,3.23962715 1.92091122,3.36690349 1.51084065,3.66039509 C1.10077009,3.95388669 0.715170178,4.26634666 0.715170178,4.26634666 C0.715170178,4.26634666 0.964125619,2.9708693 1.67141472,2.27484069 C1.95869253,1.99213654 2.75831627,1.75182657 2.75831627,1.75182657 Z" id="Path-1804" transform="translate(2.160474, 2.835552) scale(1, -1) rotate(-126.000000) translate(-2.160474, -2.835552) "></path>
                                    </g>
                                </g>
                                <g id="Group-21-Copy-2" transform="translate(5.589053, 21.024203) rotate(-65.000000) translate(-5.589053, -21.024203) translate(1.581781, 17.293294)">
                                    <g id="Group-20" transform="translate(3.386041, -0.000000)">
                                        <path d="M2.13647509,0.386807993 L2.98393314,0.0397381298 C2.98393314,0.0397381298 2.99256303,0.698513585 2.13647509,1.54097205 C1.79744092,1.87460857 1.29907004,2.00188491 0.888999476,2.29537651 C0.478928914,2.58886811 0.0933290007,2.90132809 0.0933290007,2.90132809 C0.0933290007,2.90132809 0.342284442,1.60585072 1.04957355,0.909822117 C1.33685136,0.627117959 2.13647509,0.386807993 2.13647509,0.386807993 Z" id="Path-1804"></path>
                                        <path d="M2.75831627,1.75182657 L3.60577432,1.40475671 C3.60577432,1.40475671 3.61440421,2.06353216 2.75831627,2.90599063 C2.4192821,3.23962715 1.92091122,3.36690349 1.51084065,3.66039509 C1.10077009,3.95388669 0.715170178,4.26634666 0.715170178,4.26634666 C0.715170178,4.26634666 0.964125619,2.9708693 1.67141472,2.27484069 C1.95869253,1.99213654 2.75831627,1.75182657 2.75831627,1.75182657 Z" id="Path-1804" transform="translate(2.160474, 2.835552) scale(1, -1) rotate(-126.000000) translate(-2.160474, -2.835552) "></path>
                                    </g>
                                    <g id="Group-20" transform="translate(2.849093, 4.359120) rotate(-17.000000) translate(-2.849093, -4.359120) translate(0.638184, 1.871847)">
                                        <path d="M2.13647509,0.386807993 L2.98393314,0.0397381298 C2.98393314,0.0397381298 2.99256303,0.698513585 2.13647509,1.54097205 C1.79744092,1.87460857 1.29907004,2.00188491 0.888999476,2.29537651 C0.478928914,2.58886811 0.0933290007,2.90132809 0.0933290007,2.90132809 C0.0933290007,2.90132809 0.342284442,1.60585072 1.04957355,0.909822117 C1.33685136,0.627117959 2.13647509,0.386807993 2.13647509,0.386807993 Z" id="Path-1804"></path>
                                        <path d="M2.75831627,1.75182657 L3.60577432,1.40475671 C3.60577432,1.40475671 3.61440421,2.06353216 2.75831627,2.90599063 C2.4192821,3.23962715 1.92091122,3.36690349 1.51084065,3.66039509 C1.10077009,3.95388669 0.715170178,4.26634666 0.715170178,4.26634666 C0.715170178,4.26634666 0.964125619,2.9708693 1.67141472,2.27484069 C1.95869253,1.99213654 2.75831627,1.75182657 2.75831627,1.75182657 Z" id="Path-1804" transform="translate(2.160474, 2.835552) scale(1, -1) rotate(-126.000000) translate(-2.160474, -2.835552) "></path>
                                    </g>
                                </g>
                                <g id="Group-21-Copy-2" transform="translate(8.065000, 26.998570) rotate(-85.000000) translate(-8.065000, -26.998570) translate(4.057728, 23.267661)">
                                    <g id="Group-20" transform="translate(3.386041, -0.000000)">
                                        <path d="M2.13647509,0.386807993 L2.98393314,0.0397381298 C2.98393314,0.0397381298 2.99256303,0.698513585 2.13647509,1.54097205 C1.79744092,1.87460857 1.29907004,2.00188491 0.888999476,2.29537651 C0.478928914,2.58886811 0.0933290007,2.90132809 0.0933290007,2.90132809 C0.0933290007,2.90132809 0.342284442,1.60585072 1.04957355,0.909822117 C1.33685136,0.627117959 2.13647509,0.386807993 2.13647509,0.386807993 Z" id="Path-1804"></path>
                                        <path d="M2.75831627,1.75182657 L3.60577432,1.40475671 C3.60577432,1.40475671 3.61440421,2.06353216 2.75831627,2.90599063 C2.4192821,3.23962715 1.92091122,3.36690349 1.51084065,3.66039509 C1.10077009,3.95388669 0.715170178,4.26634666 0.715170178,4.26634666 C0.715170178,4.26634666 0.964125619,2.9708693 1.67141472,2.27484069 C1.95869253,1.99213654 2.75831627,1.75182657 2.75831627,1.75182657 Z" id="Path-1804" transform="translate(2.160474, 2.835552) scale(1, -1) rotate(-126.000000) translate(-2.160474, -2.835552) "></path>
                                    </g>
                                    <g id="Group-20" transform="translate(2.849093, 4.359120) rotate(-17.000000) translate(-2.849093, -4.359120) translate(0.638184, 1.871847)">
                                        <path d="M2.13647509,0.386807993 L2.98393314,0.0397381298 C2.98393314,0.0397381298 2.99256303,0.698513585 2.13647509,1.54097205 C1.79744092,1.87460857 1.29907004,2.00188491 0.888999476,2.29537651 C0.478928914,2.58886811 0.0933290007,2.90132809 0.0933290007,2.90132809 C0.0933290007,2.90132809 0.342284442,1.60585072 1.04957355,0.909822117 C1.33685136,0.627117959 2.13647509,0.386807993 2.13647509,0.386807993 Z" id="Path-1804"></path>
                                        <path d="M2.75831627,1.75182657 L3.60577432,1.40475671 C3.60577432,1.40475671 3.61440421,2.06353216 2.75831627,2.90599063 C2.4192821,3.23962715 1.92091122,3.36690349 1.51084065,3.66039509 C1.10077009,3.95388669 0.715170178,4.26634666 0.715170178,4.26634666 C0.715170178,4.26634666 0.964125619,2.9708693 1.67141472,2.27484069 C1.95869253,1.99213654 2.75831627,1.75182657 2.75831627,1.75182657 Z" id="Path-1804" transform="translate(2.160474, 2.835552) scale(1, -1) rotate(-126.000000) translate(-2.160474, -2.835552) "></path>
                                    </g>
                                </g>
                                <g id="Group-21-Copy-2" transform="translate(12.714763, 31.870121) rotate(-111.000000) translate(-12.714763, -31.870121) translate(8.707490, 28.139212)">
                                    <g id="Group-20" transform="translate(3.386041, -0.000000)">
                                        <path d="M2.13647509,0.386807993 L2.98393314,0.0397381298 C2.98393314,0.0397381298 2.99256303,0.698513585 2.13647509,1.54097205 C1.79744092,1.87460857 1.29907004,2.00188491 0.888999476,2.29537651 C0.478928914,2.58886811 0.0933290007,2.90132809 0.0933290007,2.90132809 C0.0933290007,2.90132809 0.342284442,1.60585072 1.04957355,0.909822117 C1.33685136,0.627117959 2.13647509,0.386807993 2.13647509,0.386807993 Z" id="Path-1804"></path>
                                        <path d="M2.75831627,1.75182657 L3.60577432,1.40475671 C3.60577432,1.40475671 3.61440421,2.06353216 2.75831627,2.90599063 C2.4192821,3.23962715 1.92091122,3.36690349 1.51084065,3.66039509 C1.10077009,3.95388669 0.715170178,4.26634666 0.715170178,4.26634666 C0.715170178,4.26634666 0.964125619,2.9708693 1.67141472,2.27484069 C1.95869253,1.99213654 2.75831627,1.75182657 2.75831627,1.75182657 Z" id="Path-1804" transform="translate(2.160474, 2.835552) scale(1, -1) rotate(-126.000000) translate(-2.160474, -2.835552) "></path>
                                    </g>
                                    <g id="Group-20" transform="translate(2.849093, 4.359120) rotate(-17.000000) translate(-2.849093, -4.359120) translate(0.638184, 1.871847)">
                                        <path d="M2.13647509,0.386807993 L2.98393314,0.0397381298 C2.98393314,0.0397381298 2.99256303,0.698513585 2.13647509,1.54097205 C1.79744092,1.87460857 1.29907004,2.00188491 0.888999476,2.29537651 C0.478928914,2.58886811 0.0933290007,2.90132809 0.0933290007,2.90132809 C0.0933290007,2.90132809 0.342284442,1.60585072 1.04957355,0.909822117 C1.33685136,0.627117959 2.13647509,0.386807993 2.13647509,0.386807993 Z" id="Path-1804"></path>
                                        <path d="M2.75831627,1.75182657 L3.60577432,1.40475671 C3.60577432,1.40475671 3.61440421,2.06353216 2.75831627,2.90599063 C2.4192821,3.23962715 1.92091122,3.36690349 1.51084065,3.66039509 C1.10077009,3.95388669 0.715170178,4.26634666 0.715170178,4.26634666 C0.715170178,4.26634666 0.964125619,2.9708693 1.67141472,2.27484069 C1.95869253,1.99213654 2.75831627,1.75182657 2.75831627,1.75182657 Z" id="Path-1804" transform="translate(2.160474, 2.835552) scale(1, -1) rotate(-126.000000) translate(-2.160474, -2.835552) "></path>
                                    </g>
                                </g>
                            </g>
                            <g id="Group-23-Copy" transform="translate(36.480000, 18.654545) scale(-1, 1) translate(-36.480000, -18.654545) translate(27.360000, 0.000000)">
                                <g id="Group-21" transform="translate(8.865166, 0.000000)">
                                    <g id="Group-20" transform="translate(3.431677, 0.000000)">
                                        <path d="M2.16526988,0.388349258 L3.02414972,0.0398964693 C3.02414972,0.0398964693 3.03289593,0.701296864 2.16526988,1.54711217 C1.82166631,1.88207809 1.31657853,2.00986157 0.900981152,2.30452261 C0.485383778,2.59918365 0.0945868618,2.91288864 0.0945868618,2.91288864 C0.0945868618,2.91288864 0.346897652,1.61224935 1.06371939,0.913447371 C1.35486905,0.629616757 2.16526988,0.388349258 2.16526988,0.388349258 Z" id="Path-1804"></path>
                                        <path d="M2.79549205,1.75880685 L3.6543719,1.41035406 C3.6543719,1.41035406 3.6631181,2.07175446 2.79549205,2.91756976 C2.45188848,3.25253569 1.9468007,3.38031916 1.53120332,3.6749802 C1.11560595,3.96964124 0.724809033,4.28334624 0.724809033,4.28334624 C0.724809033,4.28334624 0.977119824,2.98270695 1.69394157,2.28390497 C1.98509122,2.00007435 2.79549205,1.75880685 2.79549205,1.75880685 Z" id="Path-1804" transform="translate(2.189592, 2.846850) scale(1, -1) rotate(-126.000000) translate(-2.189592, -2.846850) "></path>
                                    </g>
                                    <g id="Group-20" transform="translate(2.855977, 4.375465) rotate(-17.000000) translate(-2.855977, -4.375465) translate(0.645068, 1.888192)">
                                        <path d="M2.16526988,0.388349258 L3.02414972,0.0398964693 C3.02414972,0.0398964693 3.03289593,0.701296864 2.16526988,1.54711217 C1.82166631,1.88207809 1.31657853,2.00986157 0.900981152,2.30452261 C0.485383778,2.59918365 0.0945868618,2.91288864 0.0945868618,2.91288864 C0.0945868618,2.91288864 0.346897652,1.61224935 1.06371939,0.913447371 C1.35486905,0.629616757 2.16526988,0.388349258 2.16526988,0.388349258 Z" id="Path-1804"></path>
                                        <path d="M2.79549205,1.75880685 L3.6543719,1.41035406 C3.6543719,1.41035406 3.6631181,2.07175446 2.79549205,2.91756976 C2.45188848,3.25253569 1.9468007,3.38031916 1.53120332,3.6749802 C1.11560595,3.96964124 0.724809033,4.28334624 0.724809033,4.28334624 C0.724809033,4.28334624 0.977119824,2.98270695 1.69394157,2.28390497 C1.98509122,2.00007435 2.79549205,1.75880685 2.79549205,1.75880685 Z" id="Path-1804" transform="translate(2.189592, 2.846850) scale(1, -1) rotate(-126.000000) translate(-2.189592, -2.846850) "></path>
                                    </g>
                                </g>
                                <g id="Group-21" transform="translate(8.148770, 8.577679) rotate(-23.000000) translate(-8.148770, -8.577679) translate(4.141497, 4.846770)">
                                    <g id="Group-20" transform="translate(3.431677, 0.000000)">
                                        <path d="M2.16526988,0.388349258 L3.02414972,0.0398964693 C3.02414972,0.0398964693 3.03289593,0.701296864 2.16526988,1.54711217 C1.82166631,1.88207809 1.31657853,2.00986157 0.900981152,2.30452261 C0.485383778,2.59918365 0.0945868618,2.91288864 0.0945868618,2.91288864 C0.0945868618,2.91288864 0.346897652,1.61224935 1.06371939,0.913447371 C1.35486905,0.629616757 2.16526988,0.388349258 2.16526988,0.388349258 Z" id="Path-1804"></path>
                                        <path d="M2.79549205,1.75880685 L3.6543719,1.41035406 C3.6543719,1.41035406 3.6631181,2.07175446 2.79549205,2.91756976 C2.45188848,3.25253569 1.9468007,3.38031916 1.53120332,3.6749802 C1.11560595,3.96964124 0.724809033,4.28334624 0.724809033,4.28334624 C0.724809033,4.28334624 0.977119824,2.98270695 1.69394157,2.28390497 C1.98509122,2.00007435 2.79549205,1.75880685 2.79549205,1.75880685 Z" id="Path-1804" transform="translate(2.189592, 2.846850) scale(1, -1) rotate(-126.000000) translate(-2.189592, -2.846850) "></path>
                                    </g>
                                    <g id="Group-20" transform="translate(2.855977, 4.375465) rotate(-17.000000) translate(-2.855977, -4.375465) translate(0.645068, 1.888192)">
                                        <path d="M2.16526988,0.388349258 L3.02414972,0.0398964693 C3.02414972,0.0398964693 3.03289593,0.701296864 2.16526988,1.54711217 C1.82166631,1.88207809 1.31657853,2.00986157 0.900981152,2.30452261 C0.485383778,2.59918365 0.0945868618,2.91288864 0.0945868618,2.91288864 C0.0945868618,2.91288864 0.346897652,1.61224935 1.06371939,0.913447371 C1.35486905,0.629616757 2.16526988,0.388349258 2.16526988,0.388349258 Z" id="Path-1804"></path>
                                        <path d="M2.79549205,1.75880685 L3.6543719,1.41035406 C3.6543719,1.41035406 3.6631181,2.07175446 2.79549205,2.91756976 C2.45188848,3.25253569 1.9468007,3.38031916 1.53120332,3.6749802 C1.11560595,3.96964124 0.724809033,4.28334624 0.724809033,4.28334624 C0.724809033,4.28334624 0.977119824,2.98270695 1.69394157,2.28390497 C1.98509122,2.00007435 2.79549205,1.75880685 2.79549205,1.75880685 Z" id="Path-1804" transform="translate(2.189592, 2.846850) scale(1, -1) rotate(-126.000000) translate(-2.189592, -2.846850) "></path>
                                    </g>
                                </g>
                                <g id="Group-21" transform="translate(8.148770, 8.577679) rotate(-23.000000) translate(-8.148770, -8.577679) translate(4.141497, 4.846770)">
                                    <g id="Group-20" transform="translate(3.431677, 0.000000)">
                                        <path d="M2.16526988,0.388349258 L3.02414972,0.0398964693 C3.02414972,0.0398964693 3.03289593,0.701296864 2.16526988,1.54711217 C1.82166631,1.88207809 1.31657853,2.00986157 0.900981152,2.30452261 C0.485383778,2.59918365 0.0945868618,2.91288864 0.0945868618,2.91288864 C0.0945868618,2.91288864 0.346897652,1.61224935 1.06371939,0.913447371 C1.35486905,0.629616757 2.16526988,0.388349258 2.16526988,0.388349258 Z" id="Path-1804"></path>
                                        <path d="M2.79549205,1.75880685 L3.6543719,1.41035406 C3.6543719,1.41035406 3.6631181,2.07175446 2.79549205,2.91756976 C2.45188848,3.25253569 1.9468007,3.38031916 1.53120332,3.6749802 C1.11560595,3.96964124 0.724809033,4.28334624 0.724809033,4.28334624 C0.724809033,4.28334624 0.977119824,2.98270695 1.69394157,2.28390497 C1.98509122,2.00007435 2.79549205,1.75880685 2.79549205,1.75880685 Z" id="Path-1804" transform="translate(2.189592, 2.846850) scale(1, -1) rotate(-126.000000) translate(-2.189592, -2.846850) "></path>
                                    </g>
                                    <g id="Group-20" transform="translate(2.855977, 4.375465) rotate(-17.000000) translate(-2.855977, -4.375465) translate(0.645068, 1.888192)">
                                        <path d="M2.16526988,0.388349258 L3.02414972,0.0398964693 C3.02414972,0.0398964693 3.03289593,0.701296864 2.16526988,1.54711217 C1.82166631,1.88207809 1.31657853,2.00986157 0.900981152,2.30452261 C0.485383778,2.59918365 0.0945868618,2.91288864 0.0945868618,2.91288864 C0.0945868618,2.91288864 0.346897652,1.61224935 1.06371939,0.913447371 C1.35486905,0.629616757 2.16526988,0.388349258 2.16526988,0.388349258 Z" id="Path-1804"></path>
                                        <path d="M2.79549205,1.75880685 L3.6543719,1.41035406 C3.6543719,1.41035406 3.6631181,2.07175446 2.79549205,2.91756976 C2.45188848,3.25253569 1.9468007,3.38031916 1.53120332,3.6749802 C1.11560595,3.96964124 0.724809033,4.28334624 0.724809033,4.28334624 C0.724809033,4.28334624 0.977119824,2.98270695 1.69394157,2.28390497 C1.98509122,2.00007435 2.79549205,1.75880685 2.79549205,1.75880685 Z" id="Path-1804" transform="translate(2.189592, 2.846850) scale(1, -1) rotate(-126.000000) translate(-2.189592, -2.846850) "></path>
                                    </g>
                                </g>
                                <g id="Group-21-Copy" transform="translate(5.660804, 14.600048) rotate(-43.000000) translate(-5.660804, -14.600048) translate(1.653532, 10.869139)">
                                    <g id="Group-20" transform="translate(3.431677, -0.000000)">
                                        <path d="M2.16526988,0.388349258 L3.02414972,0.0398964693 C3.02414972,0.0398964693 3.03289593,0.701296864 2.16526988,1.54711217 C1.82166631,1.88207809 1.31657853,2.00986157 0.900981152,2.30452261 C0.485383778,2.59918365 0.0945868618,2.91288864 0.0945868618,2.91288864 C0.0945868618,2.91288864 0.346897652,1.61224935 1.06371939,0.913447371 C1.35486905,0.629616757 2.16526988,0.388349258 2.16526988,0.388349258 Z" id="Path-1804"></path>
                                        <path d="M2.79549205,1.75880685 L3.6543719,1.41035406 C3.6543719,1.41035406 3.6631181,2.07175446 2.79549205,2.91756976 C2.45188848,3.25253569 1.9468007,3.38031916 1.53120332,3.6749802 C1.11560595,3.96964124 0.724809033,4.28334624 0.724809033,4.28334624 C0.724809033,4.28334624 0.977119824,2.98270695 1.69394157,2.28390497 C1.98509122,2.00007435 2.79549205,1.75880685 2.79549205,1.75880685 Z" id="Path-1804" transform="translate(2.189592, 2.846850) scale(1, -1) rotate(-126.000000) translate(-2.189592, -2.846850) "></path>
                                    </g>
                                    <g id="Group-20" transform="translate(2.855977, 4.375465) rotate(-17.000000) translate(-2.855977, -4.375465) translate(0.645068, 1.888192)">
                                        <path d="M2.16526988,0.388349258 L3.02414972,0.0398964693 C3.02414972,0.0398964693 3.03289593,0.701296864 2.16526988,1.54711217 C1.82166631,1.88207809 1.31657853,2.00986157 0.900981152,2.30452261 C0.485383778,2.59918365 0.0945868618,2.91288864 0.0945868618,2.91288864 C0.0945868618,2.91288864 0.346897652,1.61224935 1.06371939,0.913447371 C1.35486905,0.629616757 2.16526988,0.388349258 2.16526988,0.388349258 Z" id="Path-1804"></path>
                                        <path d="M2.79549205,1.75880685 L3.6543719,1.41035406 C3.6543719,1.41035406 3.6631181,2.07175446 2.79549205,2.91756976 C2.45188848,3.25253569 1.9468007,3.38031916 1.53120332,3.6749802 C1.11560595,3.96964124 0.724809033,4.28334624 0.724809033,4.28334624 C0.724809033,4.28334624 0.977119824,2.98270695 1.69394157,2.28390497 C1.98509122,2.00007435 2.79549205,1.75880685 2.79549205,1.75880685 Z" id="Path-1804" transform="translate(2.189592, 2.846850) scale(1, -1) rotate(-126.000000) translate(-2.189592, -2.846850) "></path>
                                    </g>
                                </g>
                                <g id="Group-21-Copy" transform="translate(5.660804, 14.600048) rotate(-43.000000) translate(-5.660804, -14.600048) translate(1.653532, 10.869139)">
                                    <g id="Group-20" transform="translate(3.431677, -0.000000)">
                                        <path d="M2.16526988,0.388349258 L3.02414972,0.0398964693 C3.02414972,0.0398964693 3.03289593,0.701296864 2.16526988,1.54711217 C1.82166631,1.88207809 1.31657853,2.00986157 0.900981152,2.30452261 C0.485383778,2.59918365 0.0945868618,2.91288864 0.0945868618,2.91288864 C0.0945868618,2.91288864 0.346897652,1.61224935 1.06371939,0.913447371 C1.35486905,0.629616757 2.16526988,0.388349258 2.16526988,0.388349258 Z" id="Path-1804"></path>
                                        <path d="M2.79549205,1.75880685 L3.6543719,1.41035406 C3.6543719,1.41035406 3.6631181,2.07175446 2.79549205,2.91756976 C2.45188848,3.25253569 1.9468007,3.38031916 1.53120332,3.6749802 C1.11560595,3.96964124 0.724809033,4.28334624 0.724809033,4.28334624 C0.724809033,4.28334624 0.977119824,2.98270695 1.69394157,2.28390497 C1.98509122,2.00007435 2.79549205,1.75880685 2.79549205,1.75880685 Z" id="Path-1804" transform="translate(2.189592, 2.846850) scale(1, -1) rotate(-126.000000) translate(-2.189592, -2.846850) "></path>
                                    </g>
                                    <g id="Group-20" transform="translate(2.855977, 4.375465) rotate(-17.000000) translate(-2.855977, -4.375465) translate(0.645068, 1.888192)">
                                        <path d="M2.16526988,0.388349258 L3.02414972,0.0398964693 C3.02414972,0.0398964693 3.03289593,0.701296864 2.16526988,1.54711217 C1.82166631,1.88207809 1.31657853,2.00986157 0.900981152,2.30452261 C0.485383778,2.59918365 0.0945868618,2.91288864 0.0945868618,2.91288864 C0.0945868618,2.91288864 0.346897652,1.61224935 1.06371939,0.913447371 C1.35486905,0.629616757 2.16526988,0.388349258 2.16526988,0.388349258 Z" id="Path-1804"></path>
                                        <path d="M2.79549205,1.75880685 L3.6543719,1.41035406 C3.6543719,1.41035406 3.6631181,2.07175446 2.79549205,2.91756976 C2.45188848,3.25253569 1.9468007,3.38031916 1.53120332,3.6749802 C1.11560595,3.96964124 0.724809033,4.28334624 0.724809033,4.28334624 C0.724809033,4.28334624 0.977119824,2.98270695 1.69394157,2.28390497 C1.98509122,2.00007435 2.79549205,1.75880685 2.79549205,1.75880685 Z" id="Path-1804" transform="translate(2.189592, 2.846850) scale(1, -1) rotate(-126.000000) translate(-2.189592, -2.846850) "></path>
                                    </g>
                                </g>
                                <g id="Group-21-Copy-2" transform="translate(5.627817, 21.148958) rotate(-65.000000) translate(-5.627817, -21.148958) translate(1.620545, 17.418049)">
                                    <g id="Group-20" transform="translate(3.431677, -0.000000)">
                                        <path d="M2.16526988,0.388349258 L3.02414972,0.0398964693 C3.02414972,0.0398964693 3.03289593,0.701296864 2.16526988,1.54711217 C1.82166631,1.88207809 1.31657853,2.00986157 0.900981152,2.30452261 C0.485383778,2.59918365 0.0945868618,2.91288864 0.0945868618,2.91288864 C0.0945868618,2.91288864 0.346897652,1.61224935 1.06371939,0.913447371 C1.35486905,0.629616757 2.16526988,0.388349258 2.16526988,0.388349258 Z" id="Path-1804"></path>
                                        <path d="M2.79549205,1.75880685 L3.6543719,1.41035406 C3.6543719,1.41035406 3.6631181,2.07175446 2.79549205,2.91756976 C2.45188848,3.25253569 1.9468007,3.38031916 1.53120332,3.6749802 C1.11560595,3.96964124 0.724809033,4.28334624 0.724809033,4.28334624 C0.724809033,4.28334624 0.977119824,2.98270695 1.69394157,2.28390497 C1.98509122,2.00007435 2.79549205,1.75880685 2.79549205,1.75880685 Z" id="Path-1804" transform="translate(2.189592, 2.846850) scale(1, -1) rotate(-126.000000) translate(-2.189592, -2.846850) "></path>
                                    </g>
                                    <g id="Group-20" transform="translate(2.855977, 4.375465) rotate(-17.000000) translate(-2.855977, -4.375465) translate(0.645068, 1.888192)">
                                        <path d="M2.16526988,0.388349258 L3.02414972,0.0398964693 C3.02414972,0.0398964693 3.03289593,0.701296864 2.16526988,1.54711217 C1.82166631,1.88207809 1.31657853,2.00986157 0.900981152,2.30452261 C0.485383778,2.59918365 0.0945868618,2.91288864 0.0945868618,2.91288864 C0.0945868618,2.91288864 0.346897652,1.61224935 1.06371939,0.913447371 C1.35486905,0.629616757 2.16526988,0.388349258 2.16526988,0.388349258 Z" id="Path-1804"></path>
                                        <path d="M2.79549205,1.75880685 L3.6543719,1.41035406 C3.6543719,1.41035406 3.6631181,2.07175446 2.79549205,2.91756976 C2.45188848,3.25253569 1.9468007,3.38031916 1.53120332,3.6749802 C1.11560595,3.96964124 0.724809033,4.28334624 0.724809033,4.28334624 C0.724809033,4.28334624 0.977119824,2.98270695 1.69394157,2.28390497 C1.98509122,2.00007435 2.79549205,1.75880685 2.79549205,1.75880685 Z" id="Path-1804" transform="translate(2.189592, 2.846850) scale(1, -1) rotate(-126.000000) translate(-2.189592, -2.846850) "></path>
                                    </g>
                                </g>
                                <g id="Group-21-Copy-2" transform="translate(8.153890, 27.156805) rotate(-85.000000) translate(-8.153890, -27.156805) translate(4.146617, 23.425896)">
                                    <g id="Group-20" transform="translate(3.431677, -0.000000)">
                                        <path d="M2.16526988,0.388349258 L3.02414972,0.0398964693 C3.02414972,0.0398964693 3.03289593,0.701296864 2.16526988,1.54711217 C1.82166631,1.88207809 1.31657853,2.00986157 0.900981152,2.30452261 C0.485383778,2.59918365 0.0945868618,2.91288864 0.0945868618,2.91288864 C0.0945868618,2.91288864 0.346897652,1.61224935 1.06371939,0.913447371 C1.35486905,0.629616757 2.16526988,0.388349258 2.16526988,0.388349258 Z" id="Path-1804"></path>
                                        <path d="M2.79549205,1.75880685 L3.6543719,1.41035406 C3.6543719,1.41035406 3.6631181,2.07175446 2.79549205,2.91756976 C2.45188848,3.25253569 1.9468007,3.38031916 1.53120332,3.6749802 C1.11560595,3.96964124 0.724809033,4.28334624 0.724809033,4.28334624 C0.724809033,4.28334624 0.977119824,2.98270695 1.69394157,2.28390497 C1.98509122,2.00007435 2.79549205,1.75880685 2.79549205,1.75880685 Z" id="Path-1804" transform="translate(2.189592, 2.846850) scale(1, -1) rotate(-126.000000) translate(-2.189592, -2.846850) "></path>
                                    </g>
                                    <g id="Group-20" transform="translate(2.855977, 4.375465) rotate(-17.000000) translate(-2.855977, -4.375465) translate(0.645068, 1.888192)">
                                        <path d="M2.16526988,0.388349258 L3.02414972,0.0398964693 C3.02414972,0.0398964693 3.03289593,0.701296864 2.16526988,1.54711217 C1.82166631,1.88207809 1.31657853,2.00986157 0.900981152,2.30452261 C0.485383778,2.59918365 0.0945868618,2.91288864 0.0945868618,2.91288864 C0.0945868618,2.91288864 0.346897652,1.61224935 1.06371939,0.913447371 C1.35486905,0.629616757 2.16526988,0.388349258 2.16526988,0.388349258 Z" id="Path-1804"></path>
                                        <path d="M2.79549205,1.75880685 L3.6543719,1.41035406 C3.6543719,1.41035406 3.6631181,2.07175446 2.79549205,2.91756976 C2.45188848,3.25253569 1.9468007,3.38031916 1.53120332,3.6749802 C1.11560595,3.96964124 0.724809033,4.28334624 0.724809033,4.28334624 C0.724809033,4.28334624 0.977119824,2.98270695 1.69394157,2.28390497 C1.98509122,2.00007435 2.79549205,1.75880685 2.79549205,1.75880685 Z" id="Path-1804" transform="translate(2.189592, 2.846850) scale(1, -1) rotate(-126.000000) translate(-2.189592, -2.846850) "></path>
                                    </g>
                                </g>
                                <g id="Group-21-Copy-2" transform="translate(12.891332, 32.051125) rotate(-111.000000) translate(-12.891332, -32.051125) translate(8.884059, 28.320216)">
                                    <g id="Group-20" transform="translate(3.431677, -0.000000)">
                                        <path d="M2.16526988,0.388349258 L3.02414972,0.0398964693 C3.02414972,0.0398964693 3.03289593,0.701296864 2.16526988,1.54711217 C1.82166631,1.88207809 1.31657853,2.00986157 0.900981152,2.30452261 C0.485383778,2.59918365 0.0945868618,2.91288864 0.0945868618,2.91288864 C0.0945868618,2.91288864 0.346897652,1.61224935 1.06371939,0.913447371 C1.35486905,0.629616757 2.16526988,0.388349258 2.16526988,0.388349258 Z" id="Path-1804"></path>
                                        <path d="M2.79549205,1.75880685 L3.6543719,1.41035406 C3.6543719,1.41035406 3.6631181,2.07175446 2.79549205,2.91756976 C2.45188848,3.25253569 1.9468007,3.38031916 1.53120332,3.6749802 C1.11560595,3.96964124 0.724809033,4.28334624 0.724809033,4.28334624 C0.724809033,4.28334624 0.977119824,2.98270695 1.69394157,2.28390497 C1.98509122,2.00007435 2.79549205,1.75880685 2.79549205,1.75880685 Z" id="Path-1804" transform="translate(2.189592, 2.846850) scale(1, -1) rotate(-126.000000) translate(-2.189592, -2.846850) "></path>
                                    </g>
                                    <g id="Group-20" transform="translate(2.855977, 4.375465) rotate(-17.000000) translate(-2.855977, -4.375465) translate(0.645068, 1.888192)">
                                        <path d="M2.16526988,0.388349258 L3.02414972,0.0398964693 C3.02414972,0.0398964693 3.03289593,0.701296864 2.16526988,1.54711217 C1.82166631,1.88207809 1.31657853,2.00986157 0.900981152,2.30452261 C0.485383778,2.59918365 0.0945868618,2.91288864 0.0945868618,2.91288864 C0.0945868618,2.91288864 0.346897652,1.61224935 1.06371939,0.913447371 C1.35486905,0.629616757 2.16526988,0.388349258 2.16526988,0.388349258 Z" id="Path-1804"></path>
                                        <path d="M2.79549205,1.75880685 L3.6543719,1.41035406 C3.6543719,1.41035406 3.6631181,2.07175446 2.79549205,2.91756976 C2.45188848,3.25253569 1.9468007,3.38031916 1.53120332,3.6749802 C1.11560595,3.96964124 0.724809033,4.28334624 0.724809033,4.28334624 C0.724809033,4.28334624 0.977119824,2.98270695 1.69394157,2.28390497 C1.98509122,2.00007435 2.79549205,1.75880685 2.79549205,1.75880685 Z" id="Path-1804" transform="translate(2.189592, 2.846850) scale(1, -1) rotate(-126.000000) translate(-2.189592, -2.846850) "></path>
                                    </g>
                                </g>
                                <path d="M18.1023203,0.473804517 C18.1023203,0.473804517 17.4173687,0.15654698 16.3801955,0.538871779 C15.3430224,0.921196578 14.9432815,1.6382956 14.9432815,1.6382956 C14.9432815,1.6382956 15.8500095,1.83983272 16.7957942,1.49119569 C17.741579,1.14255865 18.1023203,0.473804517 18.1023203,0.473804517 Z" id="Path-1900"></path>
                            </g>
                        </g>
                    </g>
                </g>
            </g>
        </g>
    </g>
</svg>