<?xml version="1.0" encoding="UTF-8" standalone="no"?>
<svg width="154px" height="153px" viewBox="0 0 154 153" version="1.1" xmlns="http://www.w3.org/2000/svg" xmlns:xlink="http://www.w3.org/1999/xlink">
    <!-- Generator: sketchtool 3.7.2 (28276) - http://www.bohemiancoding.com/sketch -->
    <title>96CA957A-7F34-447B-9058-42E88B9E8113</title>
    <desc>Created with sketchtool.</desc>
    <defs>
        <path d="M20.3677234,41.7729183 C34.8270349,41.4147224 39.0529591,20.8541688 40.2880412,8.86657977 C40.798074,3.91624984 40.798074,0.427880395 40.798074,0.427880395 L0.0234080067,0.427880395 C0.0234080067,0.427880395 -0.0626271812,42.2790328 20.3677234,41.7729183 Z" id="path-1"></path>
        <path d="M20.3677234,41.7729183 C40.798074,41.2668038 40.798074,0.427880395 40.798074,0.427880395 L34.5710472,1.38668645 C34.5710472,1.38668645 37.8385289,34.2220279 20.3677234,41.7729183 Z" id="path-3"></path>
        <path d="M1.13686838e-13,41.7729183 C20.4303506,41.2668038 20.4303506,0.427880395 20.4303506,0.427880395 L10.2151752,2.13330413 C10.2151752,2.13330413 11.9982032,29.8632474 1.13686838e-13,41.7729183 Z" id="path-5"></path>
        <path d="M3.27373638,41.7729183 C19.8451214,41.0535858 20.4303506,1.3882356 20.4303506,1.3882356 L16.5970903,2.04746896 C16.5970903,2.04746896 17.3247005,36.2338598 3.27373638,41.7729183 Z" id="path-7"></path>
        <path d="M21.2834659,6.52690864 C33.0379995,6.52690864 42.5669318,5.69199534 42.5669318,4.6620776 L42.5669318,0.0776438644 L0,0.0776438644 L0,4.6620776 C0,5.69199534 9.52893226,6.52690864 21.2834659,6.52690864 Z" id="path-9"></path>
        <ellipse id="path-11" cx="21.2834659" cy="1.86483104" rx="21.2834659" ry="1.86483104"></ellipse>
        <filter x="-50%" y="-50%" width="200%" height="200%" filterUnits="objectBoundingBox" id="filter-13">
            <feOffset dx="0" dy="2" in="SourceAlpha" result="shadowOffsetOuter1"></feOffset>
            <feGaussianBlur stdDeviation="1" in="shadowOffsetOuter1" result="shadowBlurOuter1"></feGaussianBlur>
            <feColorMatrix values="0 0 0 0 0   0 0 0 0 0   0 0 0 0 0  0 0 0 0.35 0" type="matrix" in="shadowBlurOuter1" result="shadowMatrixOuter1"></feColorMatrix>
            <feMerge>
                <feMergeNode in="shadowMatrixOuter1"></feMergeNode>
                <feMergeNode in="SourceGraphic"></feMergeNode>
            </feMerge>
        </filter>
    </defs>
    <g id="Facebook" stroke="none" stroke-width="1" fill="none" fill-rule="evenodd">
        <g id="main-1000-win-fun" transform="translate(-301.000000, -397.000000)">
            <g id="Group-6" transform="translate(227.000000, 87.000000)">
                <g id="Group-9" transform="translate(0.000000, 28.000000)">
                    <g id="Group-3" transform="translate(68.000000, 282.000000)">
                        <g id="Group-5">
                            <g id="Group-2">
                                <g id="Group-24" fill="#FFD422">
                                    <g id="Group-23">
                                        <g id="Group-21" transform="translate(31.651317, 0.000000)">
                                            <g id="Group-20" transform="translate(12.252123, 0.000000)">
                                                <path d="M7.73066644,1.39963418 L10.7971265,0.143789285 C10.7971265,0.143789285 10.8283531,2.52751626 7.73066644,5.57588572 C6.50389808,6.78312313 4.70058238,7.24366251 3.21677442,8.30563869 C1.73296646,9.36761488 0.337703621,10.4982266 0.337703621,10.4982266 C0.337703621,10.4982266 1.23852923,5.81064406 3.79779902,3.2921195 C4.83729109,2.26917682 7.73066644,1.39963418 7.73066644,1.39963418 Z" id="Path-1804"></path>
                                                <path d="M9.98074965,6.33884614 L13.0472097,5.08300124 C13.0472097,5.08300124 13.0784363,7.46672822 9.98074965,10.5150977 C8.75398129,11.7223351 6.95066559,12.1828745 5.46685763,13.2448506 C3.98304967,14.3068268 2.58778683,15.4374386 2.58778683,15.4374386 C2.58778683,15.4374386 3.48861244,10.749856 6.04788223,8.23133146 C7.0873743,7.20838878 9.98074965,6.33884614 9.98074965,6.33884614 Z" id="Path-1804" transform="translate(7.817504, 10.260220) scale(1, -1) rotate(-126.000000) translate(-7.817504, -10.260220) "></path>
                                            </g>
                                            <g id="Group-20" transform="translate(10.309218, 15.773132) rotate(-17.000000) translate(-10.309218, -15.773132) translate(2.309218, 6.773132)">
                                                <path d="M7.73066644,1.39963418 L10.7971265,0.143789285 C10.7971265,0.143789285 10.8283531,2.52751626 7.73066644,5.57588572 C6.50389808,6.78312313 4.70058238,7.24366251 3.21677442,8.30563869 C1.73296646,9.36761488 0.337703621,10.4982266 0.337703621,10.4982266 C0.337703621,10.4982266 1.23852923,5.81064406 3.79779902,3.2921195 C4.83729109,2.26917682 7.73066644,1.39963418 7.73066644,1.39963418 Z" id="Path-1804"></path>
                                                <path d="M9.98074965,6.33884614 L13.0472097,5.08300124 C13.0472097,5.08300124 13.0784363,7.46672822 9.98074965,10.5150977 C8.75398129,11.7223351 6.95066559,12.1828745 5.46685763,13.2448506 C3.98304967,14.3068268 2.58778683,15.4374386 2.58778683,15.4374386 C2.58778683,15.4374386 3.48861244,10.749856 6.04788223,8.23133146 C7.0873743,7.20838878 9.98074965,6.33884614 9.98074965,6.33884614 Z" id="Path-1804" transform="translate(7.817504, 10.260220) scale(1, -1) rotate(-126.000000) translate(-7.817504, -10.260220) "></path>
                                            </g>
                                        </g>
                                        <path d="M64.5746586,1.7076201 C64.5746586,1.7076201 62.1291746,0.564204773 58.4261538,1.94212644 C54.7231329,3.32004811 53.2959374,5.90451631 53.2959374,5.90451631 C53.2959374,5.90451631 56.5332296,6.63086826 59.9099664,5.37435934 C63.2867032,4.11785041 64.5746586,1.7076201 64.5746586,1.7076201 Z" id="Path-1900"></path>
                                        <g id="Group-21" transform="translate(29.292212, 30.890352) rotate(-23.000000) translate(-29.292212, -30.890352) translate(14.792212, 17.390352)">
                                            <g id="Group-20" transform="translate(12.252123, 0.000000)">
                                                <path d="M7.73066644,1.39963418 L10.7971265,0.143789285 C10.7971265,0.143789285 10.8283531,2.52751626 7.73066644,5.57588572 C6.50389808,6.78312313 4.70058238,7.24366251 3.21677442,8.30563869 C1.73296646,9.36761488 0.337703621,10.4982266 0.337703621,10.4982266 C0.337703621,10.4982266 1.23852923,5.81064406 3.79779902,3.2921195 C4.83729109,2.26917682 7.73066644,1.39963418 7.73066644,1.39963418 Z" id="Path-1804"></path>
                                                <path d="M9.98074965,6.33884614 L13.0472097,5.08300124 C13.0472097,5.08300124 13.0784363,7.46672822 9.98074965,10.5150977 C8.75398129,11.7223351 6.95066559,12.1828745 5.46685763,13.2448506 C3.98304967,14.3068268 2.58778683,15.4374386 2.58778683,15.4374386 C2.58778683,15.4374386 3.48861244,10.749856 6.04788223,8.23133146 C7.0873743,7.20838878 9.98074965,6.33884614 9.98074965,6.33884614 Z" id="Path-1804" transform="translate(7.817504, 10.260220) scale(1, -1) rotate(-126.000000) translate(-7.817504, -10.260220) "></path>
                                            </g>
                                            <g id="Group-20" transform="translate(10.309218, 15.773132) rotate(-17.000000) translate(-10.309218, -15.773132) translate(2.309218, 6.773132)">
                                                <path d="M7.73066644,1.39963418 L10.7971265,0.143789285 C10.7971265,0.143789285 10.8283531,2.52751626 7.73066644,5.57588572 C6.50389808,6.78312313 4.70058238,7.24366251 3.21677442,8.30563869 C1.73296646,9.36761488 0.337703621,10.4982266 0.337703621,10.4982266 C0.337703621,10.4982266 1.23852923,5.81064406 3.79779902,3.2921195 C4.83729109,2.26917682 7.73066644,1.39963418 7.73066644,1.39963418 Z" id="Path-1804"></path>
                                                <path d="M9.98074965,6.33884614 L13.0472097,5.08300124 C13.0472097,5.08300124 13.0784363,7.46672822 9.98074965,10.5150977 C8.75398129,11.7223351 6.95066559,12.1828745 5.46685763,13.2448506 C3.98304967,14.3068268 2.58778683,15.4374386 2.58778683,15.4374386 C2.58778683,15.4374386 3.48861244,10.749856 6.04788223,8.23133146 C7.0873743,7.20838878 9.98074965,6.33884614 9.98074965,6.33884614 Z" id="Path-1804" transform="translate(7.817504, 10.260220) scale(1, -1) rotate(-126.000000) translate(-7.817504, -10.260220) "></path>
                                            </g>
                                        </g>
                                        <g id="Group-21" transform="translate(29.292212, 30.890352) rotate(-23.000000) translate(-29.292212, -30.890352) translate(14.792212, 17.390352)">
                                            <g id="Group-20" transform="translate(12.252123, 0.000000)">
                                                <path d="M7.73066644,1.39963418 L10.7971265,0.143789285 C10.7971265,0.143789285 10.8283531,2.52751626 7.73066644,5.57588572 C6.50389808,6.78312313 4.70058238,7.24366251 3.21677442,8.30563869 C1.73296646,9.36761488 0.337703621,10.4982266 0.337703621,10.4982266 C0.337703621,10.4982266 1.23852923,5.81064406 3.79779902,3.2921195 C4.83729109,2.26917682 7.73066644,1.39963418 7.73066644,1.39963418 Z" id="Path-1804"></path>
                                                <path d="M9.98074965,6.33884614 L13.0472097,5.08300124 C13.0472097,5.08300124 13.0784363,7.46672822 9.98074965,10.5150977 C8.75398129,11.7223351 6.95066559,12.1828745 5.46685763,13.2448506 C3.98304967,14.3068268 2.58778683,15.4374386 2.58778683,15.4374386 C2.58778683,15.4374386 3.48861244,10.749856 6.04788223,8.23133146 C7.0873743,7.20838878 9.98074965,6.33884614 9.98074965,6.33884614 Z" id="Path-1804" transform="translate(7.817504, 10.260220) scale(1, -1) rotate(-126.000000) translate(-7.817504, -10.260220) "></path>
                                            </g>
                                            <g id="Group-20" transform="translate(10.309218, 15.773132) rotate(-17.000000) translate(-10.309218, -15.773132) translate(2.309218, 6.773132)">
                                                <path d="M7.73066644,1.39963418 L10.7971265,0.143789285 C10.7971265,0.143789285 10.8283531,2.52751626 7.73066644,5.57588572 C6.50389808,6.78312313 4.70058238,7.24366251 3.21677442,8.30563869 C1.73296646,9.36761488 0.337703621,10.4982266 0.337703621,10.4982266 C0.337703621,10.4982266 1.23852923,5.81064406 3.79779902,3.2921195 C4.83729109,2.26917682 7.73066644,1.39963418 7.73066644,1.39963418 Z" id="Path-1804"></path>
                                                <path d="M9.98074965,6.33884614 L13.0472097,5.08300124 C13.0472097,5.08300124 13.0784363,7.46672822 9.98074965,10.5150977 C8.75398129,11.7223351 6.95066559,12.1828745 5.46685763,13.2448506 C3.98304967,14.3068268 2.58778683,15.4374386 2.58778683,15.4374386 C2.58778683,15.4374386 3.48861244,10.749856 6.04788223,8.23133146 C7.0873743,7.20838878 9.98074965,6.33884614 9.98074965,6.33884614 Z" id="Path-1804" transform="translate(7.817504, 10.260220) scale(1, -1) rotate(-126.000000) translate(-7.817504, -10.260220) "></path>
                                            </g>
                                        </g>
                                        <g id="Group-21-Copy" transform="translate(20.388714, 52.530455) rotate(-43.000000) translate(-20.388714, -52.530455) translate(5.888714, 39.030455)">
                                            <g id="Group-20" transform="translate(12.252123, -0.000000)">
                                                <path d="M7.73066644,1.39963418 L10.7971265,0.143789285 C10.7971265,0.143789285 10.8283531,2.52751626 7.73066644,5.57588572 C6.50389808,6.78312313 4.70058238,7.24366251 3.21677442,8.30563869 C1.73296646,9.36761488 0.337703621,10.4982266 0.337703621,10.4982266 C0.337703621,10.4982266 1.23852923,5.81064406 3.79779902,3.2921195 C4.83729109,2.26917682 7.73066644,1.39963418 7.73066644,1.39963418 Z" id="Path-1804"></path>
                                                <path d="M9.98074965,6.33884614 L13.0472097,5.08300124 C13.0472097,5.08300124 13.0784363,7.46672822 9.98074965,10.5150977 C8.75398129,11.7223351 6.95066559,12.1828745 5.46685763,13.2448506 C3.98304967,14.3068268 2.58778683,15.4374386 2.58778683,15.4374386 C2.58778683,15.4374386 3.48861244,10.749856 6.04788223,8.23133146 C7.0873743,7.20838878 9.98074965,6.33884614 9.98074965,6.33884614 Z" id="Path-1804" transform="translate(7.817504, 10.260220) scale(1, -1) rotate(-126.000000) translate(-7.817504, -10.260220) "></path>
                                            </g>
                                            <g id="Group-20" transform="translate(10.309218, 15.773132) rotate(-17.000000) translate(-10.309218, -15.773132) translate(2.309218, 6.773132)">
                                                <path d="M7.73066644,1.39963418 L10.7971265,0.143789285 C10.7971265,0.143789285 10.8283531,2.52751626 7.73066644,5.57588572 C6.50389808,6.78312313 4.70058238,7.24366251 3.21677442,8.30563869 C1.73296646,9.36761488 0.337703621,10.4982266 0.337703621,10.4982266 C0.337703621,10.4982266 1.23852923,5.81064406 3.79779902,3.2921195 C4.83729109,2.26917682 7.73066644,1.39963418 7.73066644,1.39963418 Z" id="Path-1804"></path>
                                                <path d="M9.98074965,6.33884614 L13.0472097,5.08300124 C13.0472097,5.08300124 13.0784363,7.46672822 9.98074965,10.5150977 C8.75398129,11.7223351 6.95066559,12.1828745 5.46685763,13.2448506 C3.98304967,14.3068268 2.58778683,15.4374386 2.58778683,15.4374386 C2.58778683,15.4374386 3.48861244,10.749856 6.04788223,8.23133146 C7.0873743,7.20838878 9.98074965,6.33884614 9.98074965,6.33884614 Z" id="Path-1804" transform="translate(7.817504, 10.260220) scale(1, -1) rotate(-126.000000) translate(-7.817504, -10.260220) "></path>
                                            </g>
                                        </g>
                                        <g id="Group-21-Copy" transform="translate(20.388714, 52.530455) rotate(-43.000000) translate(-20.388714, -52.530455) translate(5.888714, 39.030455)">
                                            <g id="Group-20" transform="translate(12.252123, -0.000000)">
                                                <path d="M7.73066644,1.39963418 L10.7971265,0.143789285 C10.7971265,0.143789285 10.8283531,2.52751626 7.73066644,5.57588572 C6.50389808,6.78312313 4.70058238,7.24366251 3.21677442,8.30563869 C1.73296646,9.36761488 0.337703621,10.4982266 0.337703621,10.4982266 C0.337703621,10.4982266 1.23852923,5.81064406 3.79779902,3.2921195 C4.83729109,2.26917682 7.73066644,1.39963418 7.73066644,1.39963418 Z" id="Path-1804"></path>
                                                <path d="M9.98074965,6.33884614 L13.0472097,5.08300124 C13.0472097,5.08300124 13.0784363,7.46672822 9.98074965,10.5150977 C8.75398129,11.7223351 6.95066559,12.1828745 5.46685763,13.2448506 C3.98304967,14.3068268 2.58778683,15.4374386 2.58778683,15.4374386 C2.58778683,15.4374386 3.48861244,10.749856 6.04788223,8.23133146 C7.0873743,7.20838878 9.98074965,6.33884614 9.98074965,6.33884614 Z" id="Path-1804" transform="translate(7.817504, 10.260220) scale(1, -1) rotate(-126.000000) translate(-7.817504, -10.260220) "></path>
                                            </g>
                                            <g id="Group-20" transform="translate(10.309218, 15.773132) rotate(-17.000000) translate(-10.309218, -15.773132) translate(2.309218, 6.773132)">
                                                <path d="M7.73066644,1.39963418 L10.7971265,0.143789285 C10.7971265,0.143789285 10.8283531,2.52751626 7.73066644,5.57588572 C6.50389808,6.78312313 4.70058238,7.24366251 3.21677442,8.30563869 C1.73296646,9.36761488 0.337703621,10.4982266 0.337703621,10.4982266 C0.337703621,10.4982266 1.23852923,5.81064406 3.79779902,3.2921195 C4.83729109,2.26917682 7.73066644,1.39963418 7.73066644,1.39963418 Z" id="Path-1804"></path>
                                                <path d="M9.98074965,6.33884614 L13.0472097,5.08300124 C13.0472097,5.08300124 13.0784363,7.46672822 9.98074965,10.5150977 C8.75398129,11.7223351 6.95066559,12.1828745 5.46685763,13.2448506 C3.98304967,14.3068268 2.58778683,15.4374386 2.58778683,15.4374386 C2.58778683,15.4374386 3.48861244,10.749856 6.04788223,8.23133146 C7.0873743,7.20838878 9.98074965,6.33884614 9.98074965,6.33884614 Z" id="Path-1804" transform="translate(7.817504, 10.260220) scale(1, -1) rotate(-126.000000) translate(-7.817504, -10.260220) "></path>
                                            </g>
                                        </g>
                                        <g id="Group-21-Copy-2" transform="translate(20.223548, 76.074419) rotate(-65.000000) translate(-20.223548, -76.074419) translate(5.723548, 62.574419)">
                                            <g id="Group-20" transform="translate(12.252123, -0.000000)">
                                                <path d="M7.73066644,1.39963418 L10.7971265,0.143789285 C10.7971265,0.143789285 10.8283531,2.52751626 7.73066644,5.57588572 C6.50389808,6.78312313 4.70058238,7.24366251 3.21677442,8.30563869 C1.73296646,9.36761488 0.337703621,10.4982266 0.337703621,10.4982266 C0.337703621,10.4982266 1.23852923,5.81064406 3.79779902,3.2921195 C4.83729109,2.26917682 7.73066644,1.39963418 7.73066644,1.39963418 Z" id="Path-1804"></path>
                                                <path d="M9.98074965,6.33884614 L13.0472097,5.08300124 C13.0472097,5.08300124 13.0784363,7.46672822 9.98074965,10.5150977 C8.75398129,11.7223351 6.95066559,12.1828745 5.46685763,13.2448506 C3.98304967,14.3068268 2.58778683,15.4374386 2.58778683,15.4374386 C2.58778683,15.4374386 3.48861244,10.749856 6.04788223,8.23133146 C7.0873743,7.20838878 9.98074965,6.33884614 9.98074965,6.33884614 Z" id="Path-1804" transform="translate(7.817504, 10.260220) scale(1, -1) rotate(-126.000000) translate(-7.817504, -10.260220) "></path>
                                            </g>
                                            <g id="Group-20" transform="translate(10.309218, 15.773132) rotate(-17.000000) translate(-10.309218, -15.773132) translate(2.309218, 6.773132)">
                                                <path d="M7.73066644,1.39963418 L10.7971265,0.143789285 C10.7971265,0.143789285 10.8283531,2.52751626 7.73066644,5.57588572 C6.50389808,6.78312313 4.70058238,7.24366251 3.21677442,8.30563869 C1.73296646,9.36761488 0.337703621,10.4982266 0.337703621,10.4982266 C0.337703621,10.4982266 1.23852923,5.81064406 3.79779902,3.2921195 C4.83729109,2.26917682 7.73066644,1.39963418 7.73066644,1.39963418 Z" id="Path-1804"></path>
                                                <path d="M9.98074965,6.33884614 L13.0472097,5.08300124 C13.0472097,5.08300124 13.0784363,7.46672822 9.98074965,10.5150977 C8.75398129,11.7223351 6.95066559,12.1828745 5.46685763,13.2448506 C3.98304967,14.3068268 2.58778683,15.4374386 2.58778683,15.4374386 C2.58778683,15.4374386 3.48861244,10.749856 6.04788223,8.23133146 C7.0873743,7.20838878 9.98074965,6.33884614 9.98074965,6.33884614 Z" id="Path-1804" transform="translate(7.817504, 10.260220) scale(1, -1) rotate(-126.000000) translate(-7.817504, -10.260220) "></path>
                                            </g>
                                        </g>
                                        <g id="Group-21-Copy-2" transform="translate(29.182567, 97.692196) rotate(-85.000000) translate(-29.182567, -97.692196) translate(14.682567, 84.192196)">
                                            <g id="Group-20" transform="translate(12.252123, -0.000000)">
                                                <path d="M7.73066644,1.39963418 L10.7971265,0.143789285 C10.7971265,0.143789285 10.8283531,2.52751626 7.73066644,5.57588572 C6.50389808,6.78312313 4.70058238,7.24366251 3.21677442,8.30563869 C1.73296646,9.36761488 0.337703621,10.4982266 0.337703621,10.4982266 C0.337703621,10.4982266 1.23852923,5.81064406 3.79779902,3.2921195 C4.83729109,2.26917682 7.73066644,1.39963418 7.73066644,1.39963418 Z" id="Path-1804"></path>
                                                <path d="M9.98074965,6.33884614 L13.0472097,5.08300124 C13.0472097,5.08300124 13.0784363,7.46672822 9.98074965,10.5150977 C8.75398129,11.7223351 6.95066559,12.1828745 5.46685763,13.2448506 C3.98304967,14.3068268 2.58778683,15.4374386 2.58778683,15.4374386 C2.58778683,15.4374386 3.48861244,10.749856 6.04788223,8.23133146 C7.0873743,7.20838878 9.98074965,6.33884614 9.98074965,6.33884614 Z" id="Path-1804" transform="translate(7.817504, 10.260220) scale(1, -1) rotate(-126.000000) translate(-7.817504, -10.260220) "></path>
                                            </g>
                                            <g id="Group-20" transform="translate(10.309218, 15.773132) rotate(-17.000000) translate(-10.309218, -15.773132) translate(2.309218, 6.773132)">
                                                <path d="M7.73066644,1.39963418 L10.7971265,0.143789285 C10.7971265,0.143789285 10.8283531,2.52751626 7.73066644,5.57588572 C6.50389808,6.78312313 4.70058238,7.24366251 3.21677442,8.30563869 C1.73296646,9.36761488 0.337703621,10.4982266 0.337703621,10.4982266 C0.337703621,10.4982266 1.23852923,5.81064406 3.79779902,3.2921195 C4.83729109,2.26917682 7.73066644,1.39963418 7.73066644,1.39963418 Z" id="Path-1804"></path>
                                                <path d="M9.98074965,6.33884614 L13.0472097,5.08300124 C13.0472097,5.08300124 13.0784363,7.46672822 9.98074965,10.5150977 C8.75398129,11.7223351 6.95066559,12.1828745 5.46685763,13.2448506 C3.98304967,14.3068268 2.58778683,15.4374386 2.58778683,15.4374386 C2.58778683,15.4374386 3.48861244,10.749856 6.04788223,8.23133146 C7.0873743,7.20838878 9.98074965,6.33884614 9.98074965,6.33884614 Z" id="Path-1804" transform="translate(7.817504, 10.260220) scale(1, -1) rotate(-126.000000) translate(-7.817504, -10.260220) "></path>
                                            </g>
                                        </g>
                                        <g id="Group-21-Copy-2" transform="translate(46.007365, 115.319518) rotate(-111.000000) translate(-46.007365, -115.319518) translate(31.507365, 101.819518)">
                                            <g id="Group-20" transform="translate(12.252123, -0.000000)">
                                                <path d="M7.73066644,1.39963418 L10.7971265,0.143789285 C10.7971265,0.143789285 10.8283531,2.52751626 7.73066644,5.57588572 C6.50389808,6.78312313 4.70058238,7.24366251 3.21677442,8.30563869 C1.73296646,9.36761488 0.337703621,10.4982266 0.337703621,10.4982266 C0.337703621,10.4982266 1.23852923,5.81064406 3.79779902,3.2921195 C4.83729109,2.26917682 7.73066644,1.39963418 7.73066644,1.39963418 Z" id="Path-1804"></path>
                                                <path d="M9.98074965,6.33884614 L13.0472097,5.08300124 C13.0472097,5.08300124 13.0784363,7.46672822 9.98074965,10.5150977 C8.75398129,11.7223351 6.95066559,12.1828745 5.46685763,13.2448506 C3.98304967,14.3068268 2.58778683,15.4374386 2.58778683,15.4374386 C2.58778683,15.4374386 3.48861244,10.749856 6.04788223,8.23133146 C7.0873743,7.20838878 9.98074965,6.33884614 9.98074965,6.33884614 Z" id="Path-1804" transform="translate(7.817504, 10.260220) scale(1, -1) rotate(-126.000000) translate(-7.817504, -10.260220) "></path>
                                            </g>
                                            <g id="Group-20" transform="translate(10.309218, 15.773132) rotate(-17.000000) translate(-10.309218, -15.773132) translate(2.309218, 6.773132)">
                                                <path d="M7.73066644,1.39963418 L10.7971265,0.143789285 C10.7971265,0.143789285 10.8283531,2.52751626 7.73066644,5.57588572 C6.50389808,6.78312313 4.70058238,7.24366251 3.21677442,8.30563869 C1.73296646,9.36761488 0.337703621,10.4982266 0.337703621,10.4982266 C0.337703621,10.4982266 1.23852923,5.81064406 3.79779902,3.2921195 C4.83729109,2.26917682 7.73066644,1.39963418 7.73066644,1.39963418 Z" id="Path-1804"></path>
                                                <path d="M9.98074965,6.33884614 L13.0472097,5.08300124 C13.0472097,5.08300124 13.0784363,7.46672822 9.98074965,10.5150977 C8.75398129,11.7223351 6.95066559,12.1828745 5.46685763,13.2448506 C3.98304967,14.3068268 2.58778683,15.4374386 2.58778683,15.4374386 C2.58778683,15.4374386 3.48861244,10.749856 6.04788223,8.23133146 C7.0873743,7.20838878 9.98074965,6.33884614 9.98074965,6.33884614 Z" id="Path-1804" transform="translate(7.817504, 10.260220) scale(1, -1) rotate(-126.000000) translate(-7.817504, -10.260220) "></path>
                                            </g>
                                        </g>
                                    </g>
                                    <g id="Group-23-Copy" transform="translate(132.000000, 67.500000) scale(-1, 1) translate(-132.000000, -67.500000) translate(99.000000, 0.000000)">
                                        <g id="Group-21" transform="translate(32.077904, 0.000000)">
                                            <g id="Group-20" transform="translate(12.417253, 0.000000)">
                                                <path d="M7.83485811,1.40521113 L10.942647,0.144362224 C10.942647,0.144362224 10.9742945,2.53758734 7.83485811,5.59810325 C6.59155573,6.81015099 4.76393546,7.27252542 3.26012917,8.33873312 C1.75632288,9.40494083 0.342255092,10.5400576 0.342255092,10.5400576 C0.342255092,10.5400576 1.25522177,5.833797 3.84898465,3.3052372 C4.90248669,2.27821853 7.83485811,1.40521113 7.83485811,1.40521113 Z" id="Path-1804"></path>
                                                <path d="M10.1152673,6.36410374 L13.2230562,5.10325484 C13.2230562,5.10325484 13.2547036,7.49647995 10.1152673,10.5569959 C8.8719649,11.7690436 7.04434463,12.231418 5.54053834,13.2976257 C4.03673205,14.3638334 2.62266427,15.4989502 2.62266427,15.4989502 C2.62266427,15.4989502 3.53563094,10.7926896 6.12939382,8.26412981 C7.18289586,7.23711114 10.1152673,6.36410374 10.1152673,6.36410374 Z" id="Path-1804" transform="translate(7.922866, 10.301103) scale(1, -1) rotate(-126.000000) translate(-7.922866, -10.301103) "></path>
                                            </g>
                                            <g id="Group-20" transform="translate(10.334128, 15.832274) rotate(-17.000000) translate(-10.334128, -15.832274) translate(2.334128, 6.832274)">
                                                <path d="M7.83485811,1.40521113 L10.942647,0.144362224 C10.942647,0.144362224 10.9742945,2.53758734 7.83485811,5.59810325 C6.59155573,6.81015099 4.76393546,7.27252542 3.26012917,8.33873312 C1.75632288,9.40494083 0.342255092,10.5400576 0.342255092,10.5400576 C0.342255092,10.5400576 1.25522177,5.833797 3.84898465,3.3052372 C4.90248669,2.27821853 7.83485811,1.40521113 7.83485811,1.40521113 Z" id="Path-1804"></path>
                                                <path d="M10.1152673,6.36410374 L13.2230562,5.10325484 C13.2230562,5.10325484 13.2547036,7.49647995 10.1152673,10.5569959 C8.8719649,11.7690436 7.04434463,12.231418 5.54053834,13.2976257 C4.03673205,14.3638334 2.62266427,15.4989502 2.62266427,15.4989502 C2.62266427,15.4989502 3.53563094,10.7926896 6.12939382,8.26412981 C7.18289586,7.23711114 10.1152673,6.36410374 10.1152673,6.36410374 Z" id="Path-1804" transform="translate(7.922866, 10.301103) scale(1, -1) rotate(-126.000000) translate(-7.922866, -10.301103) "></path>
                                            </g>
                                        </g>
                                        <g id="Group-21" transform="translate(29.485681, 31.037655) rotate(-23.000000) translate(-29.485681, -31.037655) translate(14.985681, 17.537655)">
                                            <g id="Group-20" transform="translate(12.417253, 0.000000)">
                                                <path d="M7.83485811,1.40521113 L10.942647,0.144362224 C10.942647,0.144362224 10.9742945,2.53758734 7.83485811,5.59810325 C6.59155573,6.81015099 4.76393546,7.27252542 3.26012917,8.33873312 C1.75632288,9.40494083 0.342255092,10.5400576 0.342255092,10.5400576 C0.342255092,10.5400576 1.25522177,5.833797 3.84898465,3.3052372 C4.90248669,2.27821853 7.83485811,1.40521113 7.83485811,1.40521113 Z" id="Path-1804"></path>
                                                <path d="M10.1152673,6.36410374 L13.2230562,5.10325484 C13.2230562,5.10325484 13.2547036,7.49647995 10.1152673,10.5569959 C8.8719649,11.7690436 7.04434463,12.231418 5.54053834,13.2976257 C4.03673205,14.3638334 2.62266427,15.4989502 2.62266427,15.4989502 C2.62266427,15.4989502 3.53563094,10.7926896 6.12939382,8.26412981 C7.18289586,7.23711114 10.1152673,6.36410374 10.1152673,6.36410374 Z" id="Path-1804" transform="translate(7.922866, 10.301103) scale(1, -1) rotate(-126.000000) translate(-7.922866, -10.301103) "></path>
                                            </g>
                                            <g id="Group-20" transform="translate(10.334128, 15.832274) rotate(-17.000000) translate(-10.334128, -15.832274) translate(2.334128, 6.832274)">
                                                <path d="M7.83485811,1.40521113 L10.942647,0.144362224 C10.942647,0.144362224 10.9742945,2.53758734 7.83485811,5.59810325 C6.59155573,6.81015099 4.76393546,7.27252542 3.26012917,8.33873312 C1.75632288,9.40494083 0.342255092,10.5400576 0.342255092,10.5400576 C0.342255092,10.5400576 1.25522177,5.833797 3.84898465,3.3052372 C4.90248669,2.27821853 7.83485811,1.40521113 7.83485811,1.40521113 Z" id="Path-1804"></path>
                                                <path d="M10.1152673,6.36410374 L13.2230562,5.10325484 C13.2230562,5.10325484 13.2547036,7.49647995 10.1152673,10.5569959 C8.8719649,11.7690436 7.04434463,12.231418 5.54053834,13.2976257 C4.03673205,14.3638334 2.62266427,15.4989502 2.62266427,15.4989502 C2.62266427,15.4989502 3.53563094,10.7926896 6.12939382,8.26412981 C7.18289586,7.23711114 10.1152673,6.36410374 10.1152673,6.36410374 Z" id="Path-1804" transform="translate(7.922866, 10.301103) scale(1, -1) rotate(-126.000000) translate(-7.922866, -10.301103) "></path>
                                            </g>
                                        </g>
                                        <g id="Group-21" transform="translate(29.485681, 31.037655) rotate(-23.000000) translate(-29.485681, -31.037655) translate(14.985681, 17.537655)">
                                            <g id="Group-20" transform="translate(12.417253, 0.000000)">
                                                <path d="M7.83485811,1.40521113 L10.942647,0.144362224 C10.942647,0.144362224 10.9742945,2.53758734 7.83485811,5.59810325 C6.59155573,6.81015099 4.76393546,7.27252542 3.26012917,8.33873312 C1.75632288,9.40494083 0.342255092,10.5400576 0.342255092,10.5400576 C0.342255092,10.5400576 1.25522177,5.833797 3.84898465,3.3052372 C4.90248669,2.27821853 7.83485811,1.40521113 7.83485811,1.40521113 Z" id="Path-1804"></path>
                                                <path d="M10.1152673,6.36410374 L13.2230562,5.10325484 C13.2230562,5.10325484 13.2547036,7.49647995 10.1152673,10.5569959 C8.8719649,11.7690436 7.04434463,12.231418 5.54053834,13.2976257 C4.03673205,14.3638334 2.62266427,15.4989502 2.62266427,15.4989502 C2.62266427,15.4989502 3.53563094,10.7926896 6.12939382,8.26412981 C7.18289586,7.23711114 10.1152673,6.36410374 10.1152673,6.36410374 Z" id="Path-1804" transform="translate(7.922866, 10.301103) scale(1, -1) rotate(-126.000000) translate(-7.922866, -10.301103) "></path>
                                            </g>
                                            <g id="Group-20" transform="translate(10.334128, 15.832274) rotate(-17.000000) translate(-10.334128, -15.832274) translate(2.334128, 6.832274)">
                                                <path d="M7.83485811,1.40521113 L10.942647,0.144362224 C10.942647,0.144362224 10.9742945,2.53758734 7.83485811,5.59810325 C6.59155573,6.81015099 4.76393546,7.27252542 3.26012917,8.33873312 C1.75632288,9.40494083 0.342255092,10.5400576 0.342255092,10.5400576 C0.342255092,10.5400576 1.25522177,5.833797 3.84898465,3.3052372 C4.90248669,2.27821853 7.83485811,1.40521113 7.83485811,1.40521113 Z" id="Path-1804"></path>
                                                <path d="M10.1152673,6.36410374 L13.2230562,5.10325484 C13.2230562,5.10325484 13.2547036,7.49647995 10.1152673,10.5569959 C8.8719649,11.7690436 7.04434463,12.231418 5.54053834,13.2976257 C4.03673205,14.3638334 2.62266427,15.4989502 2.62266427,15.4989502 C2.62266427,15.4989502 3.53563094,10.7926896 6.12939382,8.26412981 C7.18289586,7.23711114 10.1152673,6.36410374 10.1152673,6.36410374 Z" id="Path-1804" transform="translate(7.922866, 10.301103) scale(1, -1) rotate(-126.000000) translate(-7.922866, -10.301103) "></path>
                                            </g>
                                        </g>
                                        <g id="Group-21-Copy" transform="translate(20.483173, 52.829122) rotate(-43.000000) translate(-20.483173, -52.829122) translate(5.983173, 39.329122)">
                                            <g id="Group-20" transform="translate(12.417253, -0.000000)">
                                                <path d="M7.83485811,1.40521113 L10.942647,0.144362224 C10.942647,0.144362224 10.9742945,2.53758734 7.83485811,5.59810325 C6.59155573,6.81015099 4.76393546,7.27252542 3.26012917,8.33873312 C1.75632288,9.40494083 0.342255092,10.5400576 0.342255092,10.5400576 C0.342255092,10.5400576 1.25522177,5.833797 3.84898465,3.3052372 C4.90248669,2.27821853 7.83485811,1.40521113 7.83485811,1.40521113 Z" id="Path-1804"></path>
                                                <path d="M10.1152673,6.36410374 L13.2230562,5.10325484 C13.2230562,5.10325484 13.2547036,7.49647995 10.1152673,10.5569959 C8.8719649,11.7690436 7.04434463,12.231418 5.54053834,13.2976257 C4.03673205,14.3638334 2.62266427,15.4989502 2.62266427,15.4989502 C2.62266427,15.4989502 3.53563094,10.7926896 6.12939382,8.26412981 C7.18289586,7.23711114 10.1152673,6.36410374 10.1152673,6.36410374 Z" id="Path-1804" transform="translate(7.922866, 10.301103) scale(1, -1) rotate(-126.000000) translate(-7.922866, -10.301103) "></path>
                                            </g>
                                            <g id="Group-20" transform="translate(10.334128, 15.832274) rotate(-17.000000) translate(-10.334128, -15.832274) translate(2.334128, 6.832274)">
                                                <path d="M7.83485811,1.40521113 L10.942647,0.144362224 C10.942647,0.144362224 10.9742945,2.53758734 7.83485811,5.59810325 C6.59155573,6.81015099 4.76393546,7.27252542 3.26012917,8.33873312 C1.75632288,9.40494083 0.342255092,10.5400576 0.342255092,10.5400576 C0.342255092,10.5400576 1.25522177,5.833797 3.84898465,3.3052372 C4.90248669,2.27821853 7.83485811,1.40521113 7.83485811,1.40521113 Z" id="Path-1804"></path>
                                                <path d="M10.1152673,6.36410374 L13.2230562,5.10325484 C13.2230562,5.10325484 13.2547036,7.49647995 10.1152673,10.5569959 C8.8719649,11.7690436 7.04434463,12.231418 5.54053834,13.2976257 C4.03673205,14.3638334 2.62266427,15.4989502 2.62266427,15.4989502 C2.62266427,15.4989502 3.53563094,10.7926896 6.12939382,8.26412981 C7.18289586,7.23711114 10.1152673,6.36410374 10.1152673,6.36410374 Z" id="Path-1804" transform="translate(7.922866, 10.301103) scale(1, -1) rotate(-126.000000) translate(-7.922866, -10.301103) "></path>
                                            </g>
                                        </g>
                                        <g id="Group-21-Copy" transform="translate(20.483173, 52.829122) rotate(-43.000000) translate(-20.483173, -52.829122) translate(5.983173, 39.329122)">
                                            <g id="Group-20" transform="translate(12.417253, -0.000000)">
                                                <path d="M7.83485811,1.40521113 L10.942647,0.144362224 C10.942647,0.144362224 10.9742945,2.53758734 7.83485811,5.59810325 C6.59155573,6.81015099 4.76393546,7.27252542 3.26012917,8.33873312 C1.75632288,9.40494083 0.342255092,10.5400576 0.342255092,10.5400576 C0.342255092,10.5400576 1.25522177,5.833797 3.84898465,3.3052372 C4.90248669,2.27821853 7.83485811,1.40521113 7.83485811,1.40521113 Z" id="Path-1804"></path>
                                                <path d="M10.1152673,6.36410374 L13.2230562,5.10325484 C13.2230562,5.10325484 13.2547036,7.49647995 10.1152673,10.5569959 C8.8719649,11.7690436 7.04434463,12.231418 5.54053834,13.2976257 C4.03673205,14.3638334 2.62266427,15.4989502 2.62266427,15.4989502 C2.62266427,15.4989502 3.53563094,10.7926896 6.12939382,8.26412981 C7.18289586,7.23711114 10.1152673,6.36410374 10.1152673,6.36410374 Z" id="Path-1804" transform="translate(7.922866, 10.301103) scale(1, -1) rotate(-126.000000) translate(-7.922866, -10.301103) "></path>
                                            </g>
                                            <g id="Group-20" transform="translate(10.334128, 15.832274) rotate(-17.000000) translate(-10.334128, -15.832274) translate(2.334128, 6.832274)">
                                                <path d="M7.83485811,1.40521113 L10.942647,0.144362224 C10.942647,0.144362224 10.9742945,2.53758734 7.83485811,5.59810325 C6.59155573,6.81015099 4.76393546,7.27252542 3.26012917,8.33873312 C1.75632288,9.40494083 0.342255092,10.5400576 0.342255092,10.5400576 C0.342255092,10.5400576 1.25522177,5.833797 3.84898465,3.3052372 C4.90248669,2.27821853 7.83485811,1.40521113 7.83485811,1.40521113 Z" id="Path-1804"></path>
                                                <path d="M10.1152673,6.36410374 L13.2230562,5.10325484 C13.2230562,5.10325484 13.2547036,7.49647995 10.1152673,10.5569959 C8.8719649,11.7690436 7.04434463,12.231418 5.54053834,13.2976257 C4.03673205,14.3638334 2.62266427,15.4989502 2.62266427,15.4989502 C2.62266427,15.4989502 3.53563094,10.7926896 6.12939382,8.26412981 C7.18289586,7.23711114 10.1152673,6.36410374 10.1152673,6.36410374 Z" id="Path-1804" transform="translate(7.922866, 10.301103) scale(1, -1) rotate(-126.000000) translate(-7.922866, -10.301103) "></path>
                                            </g>
                                        </g>
                                        <g id="Group-21-Copy-2" transform="translate(20.363813, 76.525834) rotate(-65.000000) translate(-20.363813, -76.525834) translate(5.863813, 63.025834)">
                                            <g id="Group-20" transform="translate(12.417253, -0.000000)">
                                                <path d="M7.83485811,1.40521113 L10.942647,0.144362224 C10.942647,0.144362224 10.9742945,2.53758734 7.83485811,5.59810325 C6.59155573,6.81015099 4.76393546,7.27252542 3.26012917,8.33873312 C1.75632288,9.40494083 0.342255092,10.5400576 0.342255092,10.5400576 C0.342255092,10.5400576 1.25522177,5.833797 3.84898465,3.3052372 C4.90248669,2.27821853 7.83485811,1.40521113 7.83485811,1.40521113 Z" id="Path-1804"></path>
                                                <path d="M10.1152673,6.36410374 L13.2230562,5.10325484 C13.2230562,5.10325484 13.2547036,7.49647995 10.1152673,10.5569959 C8.8719649,11.7690436 7.04434463,12.231418 5.54053834,13.2976257 C4.03673205,14.3638334 2.62266427,15.4989502 2.62266427,15.4989502 C2.62266427,15.4989502 3.53563094,10.7926896 6.12939382,8.26412981 C7.18289586,7.23711114 10.1152673,6.36410374 10.1152673,6.36410374 Z" id="Path-1804" transform="translate(7.922866, 10.301103) scale(1, -1) rotate(-126.000000) translate(-7.922866, -10.301103) "></path>
                                            </g>
                                            <g id="Group-20" transform="translate(10.334128, 15.832274) rotate(-17.000000) translate(-10.334128, -15.832274) translate(2.334128, 6.832274)">
                                                <path d="M7.83485811,1.40521113 L10.942647,0.144362224 C10.942647,0.144362224 10.9742945,2.53758734 7.83485811,5.59810325 C6.59155573,6.81015099 4.76393546,7.27252541 3.26012917,8.33873312 C1.75632288,9.40494083 0.342255092,10.5400576 0.342255092,10.5400576 C0.342255092,10.5400576 1.25522177,5.833797 3.84898465,3.3052372 C4.90248669,2.27821853 7.83485811,1.40521113 7.83485811,1.40521113 Z" id="Path-1804"></path>
                                                <path d="M10.1152673,6.36410374 L13.2230562,5.10325484 C13.2230562,5.10325484 13.2547036,7.49647995 10.1152673,10.5569959 C8.8719649,11.7690436 7.04434463,12.231418 5.54053834,13.2976257 C4.03673205,14.3638334 2.62266427,15.4989502 2.62266427,15.4989502 C2.62266427,15.4989502 3.53563094,10.7926896 6.12939382,8.26412981 C7.18289586,7.23711114 10.1152673,6.36410374 10.1152673,6.36410374 Z" id="Path-1804" transform="translate(7.922866, 10.301103) scale(1, -1) rotate(-126.000000) translate(-7.922866, -10.301103) "></path>
                                            </g>
                                        </g>
                                        <g id="Group-21-Copy-2" transform="translate(29.504207, 98.264756) rotate(-85.000000) translate(-29.504207, -98.264756) translate(15.004207, 84.764756)">
                                            <g id="Group-20" transform="translate(12.417253, -0.000000)">
                                                <path d="M7.83485811,1.40521113 L10.942647,0.144362224 C10.942647,0.144362224 10.9742945,2.53758734 7.83485811,5.59810325 C6.59155573,6.81015099 4.76393546,7.27252542 3.26012917,8.33873312 C1.75632288,9.40494083 0.342255092,10.5400576 0.342255092,10.5400576 C0.342255092,10.5400576 1.25522177,5.833797 3.84898465,3.3052372 C4.90248669,2.27821853 7.83485811,1.40521113 7.83485811,1.40521113 Z" id="Path-1804"></path>
                                                <path d="M10.1152673,6.36410374 L13.2230562,5.10325484 C13.2230562,5.10325484 13.2547036,7.49647995 10.1152673,10.5569959 C8.8719649,11.7690436 7.04434463,12.231418 5.54053834,13.2976257 C4.03673205,14.3638334 2.62266427,15.4989502 2.62266427,15.4989502 C2.62266427,15.4989502 3.53563094,10.7926896 6.12939382,8.26412981 C7.18289586,7.23711114 10.1152673,6.36410374 10.1152673,6.36410374 Z" id="Path-1804" transform="translate(7.922866, 10.301103) scale(1, -1) rotate(-126.000000) translate(-7.922866, -10.301103) "></path>
                                            </g>
                                            <g id="Group-20" transform="translate(10.334128, 15.832274) rotate(-17.000000) translate(-10.334128, -15.832274) translate(2.334128, 6.832274)">
                                                <path d="M7.83485811,1.40521113 L10.942647,0.144362224 C10.942647,0.144362224 10.9742945,2.53758734 7.83485811,5.59810325 C6.59155573,6.81015099 4.76393546,7.27252542 3.26012917,8.33873312 C1.75632288,9.40494083 0.342255092,10.5400576 0.342255092,10.5400576 C0.342255092,10.5400576 1.25522177,5.833797 3.84898465,3.3052372 C4.90248669,2.27821853 7.83485811,1.40521113 7.83485811,1.40521113 Z" id="Path-1804"></path>
                                                <path d="M10.1152673,6.36410374 L13.2230562,5.10325484 C13.2230562,5.10325484 13.2547036,7.49647995 10.1152673,10.5569959 C8.8719649,11.7690436 7.04434463,12.231418 5.54053834,13.2976257 C4.03673205,14.3638334 2.62266427,15.4989502 2.62266427,15.4989502 C2.62266427,15.4989502 3.53563094,10.7926896 6.12939382,8.26412981 C7.18289586,7.23711114 10.1152673,6.36410374 10.1152673,6.36410374 Z" id="Path-1804" transform="translate(7.922866, 10.301103) scale(1, -1) rotate(-126.000000) translate(-7.922866, -10.301103) "></path>
                                            </g>
                                        </g>
                                        <g id="Group-21-Copy-2" transform="translate(46.646267, 115.974465) rotate(-111.000000) translate(-46.646267, -115.974465) translate(32.146267, 102.474465)">
                                            <g id="Group-20" transform="translate(12.417253, -0.000000)">
                                                <path d="M7.83485811,1.40521113 L10.942647,0.144362224 C10.942647,0.144362224 10.9742945,2.53758734 7.83485811,5.59810325 C6.59155573,6.81015099 4.76393546,7.27252542 3.26012917,8.33873312 C1.75632288,9.40494083 0.342255092,10.5400576 0.342255092,10.5400576 C0.342255092,10.5400576 1.25522177,5.833797 3.84898465,3.3052372 C4.90248669,2.27821853 7.83485811,1.40521113 7.83485811,1.40521113 Z" id="Path-1804"></path>
                                                <path d="M10.1152673,6.36410374 L13.2230562,5.10325484 C13.2230562,5.10325484 13.2547036,7.49647995 10.1152673,10.5569959 C8.8719649,11.7690436 7.04434463,12.231418 5.54053834,13.2976257 C4.03673205,14.3638334 2.62266427,15.4989502 2.62266427,15.4989502 C2.62266427,15.4989502 3.53563094,10.7926896 6.12939382,8.26412981 C7.18289586,7.23711114 10.1152673,6.36410374 10.1152673,6.36410374 Z" id="Path-1804" transform="translate(7.922866, 10.301103) scale(1, -1) rotate(-126.000000) translate(-7.922866, -10.301103) "></path>
                                            </g>
                                            <g id="Group-20" transform="translate(10.334128, 15.832274) rotate(-17.000000) translate(-10.334128, -15.832274) translate(2.334128, 6.832274)">
                                                <path d="M7.83485811,1.40521113 L10.942647,0.144362224 C10.942647,0.144362224 10.9742945,2.53758734 7.83485811,5.59810325 C6.59155573,6.81015099 4.76393546,7.27252542 3.26012917,8.33873312 C1.75632288,9.40494083 0.342255092,10.5400576 0.342255092,10.5400576 C0.342255092,10.5400576 1.25522177,5.833797 3.84898465,3.3052372 C4.90248669,2.27821853 7.83485811,1.40521113 7.83485811,1.40521113 Z" id="Path-1804"></path>
                                                <path d="M10.1152673,6.36410374 L13.2230562,5.10325484 C13.2230562,5.10325484 13.2547036,7.49647995 10.1152673,10.5569959 C8.8719649,11.7690436 7.04434463,12.231418 5.54053834,13.2976257 C4.03673205,14.3638334 2.62266427,15.4989502 2.62266427,15.4989502 C2.62266427,15.4989502 3.53563094,10.7926896 6.12939382,8.26412981 C7.18289586,7.23711114 10.1152673,6.36410374 10.1152673,6.36410374 Z" id="Path-1804" transform="translate(7.922866, 10.301103) scale(1, -1) rotate(-126.000000) translate(-7.922866, -10.301103) "></path>
                                            </g>
                                        </g>
                                        <path d="M65.501817,1.71442424 C65.501817,1.71442424 63.0233735,0.566452889 59.2704444,1.94986499 C55.5175153,3.33327709 54.0710845,5.92804329 54.0710845,5.92804329 C54.0710845,5.92804329 57.352008,6.65728945 60.7742555,5.39577387 C64.1965029,4.13425829 65.501817,1.71442424 65.501817,1.71442424 Z" id="Path-1900"></path>
                                    </g>
                                </g>
                                <g id="Group-25" transform="translate(24.823009, 7.303922)">
                                    <ellipse id="Oval-519" fill="#F4F4F4" cx="58.4070796" cy="57.7009804" rx="58.4070796" ry="57.7009804"></ellipse>
                                    <ellipse id="Oval-519" fill="#E7E7E7" cx="59.1371681" cy="56.9705882" rx="56.2168142" ry="55.5098039"></ellipse>
                                    <ellipse id="Oval-519" fill="#F8F8F8" cx="57.6769912" cy="57.7009804" rx="54.7566372" ry="54.7794118"></ellipse>
                                    <ellipse id="Oval-519" fill="#FFFFFF" cx="58.4070796" cy="58.4313725" rx="52.5663717" ry="52.5882353"></ellipse>
                                </g>
                                <g id="trophy" transform="translate(48.185841, 18.990196)">
                                    <g id="body">
                                        <rect id="Rectangle-1384" fill="#59607C" x="19.0192674" y="68.0663329" width="32.6044584" height="14.9186483"></rect>
                                        <g id="Group-29" transform="translate(24.453344, 70.863579)">
                                            <rect id="Rectangle-1388" fill="#D5C83C" x="0" y="0" width="21.7363056" height="8.39173967"></rect>
                                            <rect id="Rectangle-1388" fill="#FFDF34" x="0" y="0.932415519" width="21.7363056" height="6.52690864"></rect>
                                            <g id="Group-30" transform="translate(1.811359, 1.864831)" fill="#42545E">
                                                <rect id="Rectangle-1393" x="16.3022292" y="0" width="1.8113588" height="0.932415519"></rect>
                                                <rect id="Rectangle-1393" x="16.3022292" y="3.72966208" width="1.8113588" height="0.932415519"></rect>
                                                <rect id="Rectangle-1393" x="0" y="0" width="1.8113588" height="0.932415519"></rect>
                                                <rect id="Rectangle-1393" x="0" y="3.72966208" width="1.8113588" height="0.932415519"></rect>
                                            </g>
                                            <polygon id="Rectangle-1388" fill="#FFE868" points="3.6227176 0.932415519 14.4908704 0.932415519 17.2079086 7.45932416 6.3397558 7.45932416"></polygon>
                                            <polygon id="Rectangle-1388" fill="#FFEE92" points="5.4340764 0.932415519 9.9624734 0.932415519 12.6795116 7.45932416 8.1511146 7.45932416"></polygon>
                                            <rect id="Rectangle-1388" fill="#787C63" x="0" y="7.45932416" width="21.7363056" height="0.932415519"></rect>
                                        </g>
                                        <rect id="Rectangle-1385" fill="#71768C" x="18.113588" y="81.1201502" width="34.4158172" height="5.59449312"></rect>
                                        <rect id="Rectangle-1385" fill="#59607C" x="18.113588" y="82.0525657" width="34.4158172" height="5.59449312"></rect>
                                        <polygon id="Rectangle-1384" fill="#67758F" points="48.942843 66.2015019 51.6237258 68.0663329 19.0192674 68.0663329 21.7818869 66.2015019"></polygon>
                                        <rect id="Rectangle-1385" fill="#42545E" x="18.113588" y="86.7146433" width="34.4158172" height="0.932415519"></rect>
                                        <polygon id="Rectangle-1382" fill="#FFE144" points="38.0385348 51.2828536 37.5984481 63.4042553 33.044545 63.4042553 32.6044584 51.2828536"></polygon>
                                        <polygon id="Rectangle-1382" fill="#FFEA75" points="32.6044584 51.2828536 33.0323708 62.4718398 34.4158172 62.4718398 34.4158172 51.2828536"></polygon>
                                        <path d="M67.9420518,13.7366111 C69.8970759,17.8446309 67.5068299,23.3685366 62.0862379,27.3597086 C56.6656459,31.3508806 53.1512323,33.2526513 49.4277733,37.619689 C45.7043142,41.9867266 47.3870935,44.5302822 48.0792809,45.3282908 C48.7714683,46.1262994 50.3819569,47.5531915 50.3819569,47.5531915 L51.2825578,46.7880999 C51.2825578,46.7880999 44.8838993,43.2713019 51.2825578,38.0576644 C57.6812162,32.8440269 64.5472051,30.3130623 68.6403719,24.9438612 C72.7335388,19.5746601 72.8364423,10.8579831 66.8185787,8.22283149 C60.800715,5.58767987 56.2306565,10.6194513 56.2306565,10.6194513 L55.5896261,14.4057675 C55.5896261,14.4057675 63.5167776,4.43794583 67.9420518,13.7366111 Z" id="Line" fill="#FFDA2C"></path>
                                        <path d="M20.8467231,12.8041956 C22.8017471,16.9122154 20.4115011,22.4361211 14.9909091,26.4272931 C9.57031712,30.418465 6.05590354,32.3202358 2.33244448,36.6872735 C-1.39101457,41.0543111 0.291764709,43.5978667 0.983952115,44.3958753 C1.67613952,45.1938839 3.28662809,46.620776 3.28662809,46.620776 L4.18722904,45.8556844 C4.18722904,45.8556844 -2.21142944,42.3388864 4.187229,37.1252489 C10.5858874,31.9116114 17.4518763,29.3806468 21.5450432,24.0114457 C25.63821,18.6422445 25.7411135,9.92556759 19.7232499,7.29041597 C13.7053862,4.65526435 9.13532771,9.68703581 9.13532771,9.68703581 L8.49429736,13.473352 C8.49429736,13.473352 16.4214488,3.50553031 20.8467231,12.8041956 Z" id="Line" fill="#FFE537" transform="translate(12.226672, 26.573842) scale(-1, 1) translate(-12.226672, -26.573842) "></path>
                                        <path d="M38.021247,62.4718398 C38.021247,62.4718398 39.8240656,62.4718398 42.5156886,64.0067013 C45.2073116,65.5415628 45.28397,67.1339174 45.28397,67.1339174 L25.3590232,67.1339174 C25.3590232,67.1339174 25.4663776,65.5415628 28.1292167,64.0067013 C30.7920558,62.4718398 32.6217462,62.4718398 32.6217462,62.4718398 L38.021247,62.4718398 Z" id="Rectangle-1382" fill="#FFE144"></path>
                                        <path d="M34.4158172,62.4720836 C34.4158172,62.4720836 33.6053406,63.2535164 32.7104465,64.4948934 C31.8155524,65.7362704 31.8967727,67.1339174 31.8967727,67.1339174 L27.1728318,67.1339174 C27.1728318,67.1339174 26.9939313,65.4868144 29.6937496,63.9520332 C32.3935678,62.417252 32.9022972,62.4720836 32.9022972,62.4720836 L34.4158172,62.4720836 Z" id="Rectangle-1382" fill="#FFEE92"></path>
                                        <polygon id="Rectangle-1382" fill="#FFDF34" points="45.28397 65.2690864 45.2839697 67.1339174 25.3590232 67.1339174 25.3590232 65.2690864"></polygon>
                                        <polygon id="Rectangle-1382" fill="#FFE768" points="35.3214966 67.1339174 26.0195557 67.1339174 25.3590232 65.2690864 34.6609642 65.2690864"></polygon>
                                        <polygon id="Rectangle-1382" fill="#FFEE92" points="30.7930996 67.1339174 27.737757 67.1339174 27.170382 65.2690864 30.2257246 65.2690864"></polygon>
                                        <polygon id="Rectangle-1382" fill="#EECF2D" points="46.1896494 67.1339174 38.8113659 67.1339174 38.0385348 65.2690864 45.4168183 65.2690864"></polygon>
                                        <polygon id="Rectangle-1382" fill="#D4BC38" points="44.3782906 67.1339174 41.4444639 67.1339174 40.755573 65.2690864 43.6893997 65.2690864"></polygon>
                                        <g id="Group-33" transform="translate(15.396550, 3.729662)">
                                            <g id="Group-28" transform="translate(0.000000, 2.918866)">
                                                <mask id="mask-2" fill="white">
                                                    <use xlink:href="#path-1"></use>
                                                </mask>
                                                <use id="Oval-533" fill="#FCE537" xlink:href="#path-1"></use>
                                                <mask id="mask-4" fill="white">
                                                    <use xlink:href="#path-3"></use>
                                                </mask>
                                                <use id="Oval-533" fill="#FFDF3D" xlink:href="#path-3"></use>
                                                <mask id="mask-6" fill="white">
                                                    <use xlink:href="#path-5"></use>
                                                </mask>
                                                <use id="Oval-533" fill="#FFE768" transform="translate(10.215175, 21.100399) scale(-1, 1) translate(-10.215175, -21.100399) " xlink:href="#path-5"></use>
                                                <mask id="mask-8" fill="white">
                                                    <use xlink:href="#path-7"></use>
                                                </mask>
                                                <use id="Oval-533" fill="#FFEE92" transform="translate(11.852043, 21.580577) scale(-1, 1) translate(-11.852043, -21.580577) " xlink:href="#path-7"></use>
                                            </g>
                                            <path d="M20.3490723,5.83773195 C32.1031366,5.83773195 40.7354468,5.22512031 40.7354468,4.21657165 L40.7354468,0.431358765 L0,0 L0,4.10014392 C0,5.10869258 8.59500807,5.83773195 20.3490723,5.83773195 Z" id="Oval-533" fill-opacity="0.970000029" fill="#000000" opacity="0.0255363806"></path>
                                        </g>
                                        <ellipse id="Oval-537" fill="#FFEF5D" cx="35.3214966" cy="24.2428035" rx="9.056794" ry="9.32415519"></ellipse>
                                        <ellipse id="Oval-537" fill="#F0D141" cx="35.3214966" cy="24.2428035" rx="8.1511146" ry="8.39173967"></ellipse>
                                        <polygon id="1" fill="#FFF17E" points="37.1328554 28.9048811 35.7400436 28.9048811 35.7400436 20.8622449 33.5101378 20.8811836 33.5101378 19.9216226 37.1328554 19.5807259"></polygon>
                                        <g id="Group-31" transform="translate(14.490870, 1.864831)">
                                            <mask id="mask-10" fill="white">
                                                <use xlink:href="#path-9"></use>
                                            </mask>
                                            <use id="Oval-533" fill="#FDEB32" xlink:href="#path-9"></use>
                                            <polygon id="Rectangle-1397" fill="#FFE768" mask="url(#mask-10)" points="9.20601865 -1.86483104 13.8805212 12.1214018 3.20926115 12.1214018 -1.46524142 -1.86483104"></polygon>
                                            <polygon id="Rectangle-1397" fill="#FFEE92" mask="url(#mask-10)" points="5.55220834 -1.86483104 10.1790489 12.1214018 5.55220849 12.1214018 0.92536793 -1.86483104"></polygon>
                                            <polygon id="Rectangle-1397" fill="#FFDF3D" mask="url(#mask-10)" points="43.7874346 -1.86483104 44.4176679 12.1214018 33.7464079 12.1214018 29.0719053 -1.86483104"></polygon>
                                        </g>
                                        <g id="Group-32" transform="translate(14.490870, 0.000000)">
                                            <mask id="mask-12" fill="white">
                                                <use xlink:href="#path-11"></use>
                                            </mask>
                                            <use id="Oval-533" fill="#FDEB32" xlink:href="#path-11"></use>
                                            <ellipse id="Oval-533" fill="#F7DE3A" mask="url(#mask-12)" cx="21.2834659" cy="3.72966208" rx="21.2834659" ry="1.86483104"></ellipse>
                                        </g>
                                        <rect id="Rectangle-1382" fill="#FFDC36" x="30.7930996" y="47.5531915" width="9.056794" height="3.72966208" rx="8"></rect>
                                        <rect id="Rectangle-1382" fill="#FFE144" x="30.7930996" y="48.485607" width="9.056794" height="1.86483104" rx="8"></rect>
                                    </g>
                                </g>
                                <g id="sparkles" transform="translate(36.504425, 17.529412)" fill="#FFFFFF">
                                    <path d="M20.0571534,5.36461446 C20.0571534,5.36461446 23.5897559,5.32849031 24.4399361,4.44156102 C25.2901163,3.55463173 25.2901164,0 25.2901164,0 C25.2901164,0 25.2901163,3.54470838 26.1672528,4.44156102 C27.0443893,5.33841366 30.5217552,5.36461436 30.5217552,5.36461436 C30.5217552,5.36461436 27.0443893,5.35288371 26.1672528,6.23973011 C25.2901163,7.12657651 25.2901163,10.6428571 25.2901163,10.6428571 C25.2901163,10.6428571 25.3336233,7.11484585 24.4399361,6.23973011 C23.5462488,5.36461436 20.0571534,5.36461446 20.0571534,5.36461446 Z" id="Rectangle-1397"></path>
                                    <path d="M0,18.6825812 C0,18.6825812 4.71013664,18.6344156 5.84371024,17.4518433 C6.97728384,16.2692709 6.97728401,11.5297619 6.97728401,11.5297619 C6.97728401,11.5297619 6.97728384,16.2560397 8.14679921,17.4518433 C9.31631459,18.6476468 13.9528024,18.6825811 13.9528024,18.6825811 C13.9528024,18.6825811 9.31631459,18.6669402 8.14679921,19.849402 C6.97728384,21.0318639 6.97728384,25.7202381 6.97728384,25.7202381 C6.97728384,25.7202381 7.03529322,21.016223 5.84371024,19.849402 C4.65212726,18.6825811 0,18.6825812 0,18.6825812 Z" id="Rectangle-1397-Copy-2"></path>
                                    <path d="M48.8348083,39.0813907 C48.8348083,39.0813907 53.5449449,39.0332252 54.6785185,37.8506528 C55.8120921,36.6680804 55.8120923,31.9285714 55.8120923,31.9285714 C55.8120923,31.9285714 55.8120921,36.6548493 56.9816075,37.8506528 C58.1511228,39.0464563 62.7876106,39.0813906 62.7876106,39.0813906 C62.7876106,39.0813906 58.1511228,39.0657497 56.9816075,40.2482116 C55.8120921,41.4306734 55.8120921,46.1190476 55.8120921,46.1190476 C55.8120921,46.1190476 55.8701015,41.4150326 54.6785185,40.2482116 C53.4869355,39.0813906 48.8348083,39.0813907 48.8348083,39.0813907 Z" id="Rectangle-1397-Copy-3"></path>
                                    <path d="M7.84845133,9.34488942 C7.84845133,9.34488942 10.4979032,9.3177963 11.1355383,8.65259933 C11.7731735,7.98740237 11.7731736,5.32142857 11.7731736,5.32142857 C11.7731736,5.32142857 11.7731735,7.97995985 12.4310259,8.65259933 C13.0888783,9.32523882 15.6969027,9.34488934 15.6969027,9.34488934 C15.6969027,9.34488934 13.0888783,9.33609135 12.4310259,10.0012262 C11.7731735,10.666361 11.7731735,13.3035714 11.7731735,13.3035714 C11.7731735,13.3035714 11.8058038,10.657563 11.1355383,10.0012262 C10.4652729,9.34488934 7.84845133,9.34488942 7.84845133,9.34488942 Z" id="Rectangle-1397"></path>
                                    <path d="M30.5217552,20.8746513 C30.5217552,20.8746513 33.171207,20.8475582 33.8088422,20.1823612 C34.4464773,19.5171643 34.4464774,16.8511905 34.4464774,16.8511905 C34.4464774,16.8511905 34.4464773,19.5097218 35.1043297,20.1823612 C35.7621821,20.8550007 38.3702065,20.8746512 38.3702065,20.8746512 C38.3702065,20.8746512 35.7621821,20.8658533 35.1043297,21.5309881 C34.4464773,22.1961229 34.4464773,24.8333333 34.4464773,24.8333333 C34.4464773,24.8333333 34.4791076,22.1873249 33.8088422,21.5309881 C33.1385767,20.8746512 30.5217552,20.8746513 30.5217552,20.8746513 Z" id="Rectangle-1397"></path>
                                    <path d="M34.8820059,70.541318 C34.8820059,70.541318 37.5314578,70.5142249 38.1690929,69.8490279 C38.8067281,69.1838309 38.8067282,66.5178571 38.8067282,66.5178571 C38.8067282,66.5178571 38.8067281,69.1763884 39.4645805,69.8490279 C40.1224329,70.5216674 42.7304572,70.5413179 42.7304572,70.5413179 C42.7304572,70.5413179 40.1224329,70.5325199 39.4645805,71.1976547 C38.8067281,71.8627895 38.8067281,74.5 38.8067281,74.5 C38.8067281,74.5 38.8393583,71.8539915 38.1690929,71.1976547 C37.4988275,70.5413179 34.8820059,70.541318 34.8820059,70.541318 Z" id="Rectangle-1397"></path>
                                    <path d="M34.8820059,62.991831 C34.8820059,62.991831 36.6483071,62.973769 37.0733972,62.5303043 C37.4984873,62.0868397 37.4984874,60.3095238 37.4984874,60.3095238 C37.4984874,60.3095238 37.4984873,62.081878 37.9370556,62.5303043 C38.3756239,62.9787306 40.1143068,62.991831 40.1143068,62.991831 C40.1143068,62.991831 38.3756239,62.9859657 37.9370556,63.4293889 C37.4984873,63.8728121 37.4984873,65.6309524 37.4984873,65.6309524 C37.4984873,65.6309524 37.5202409,63.8669467 37.0733972,63.4293889 C36.6265536,62.991831 34.8820059,62.991831 34.8820059,62.991831 Z" id="Rectangle-1397"></path>
                                    <path d="M35.754056,18.6393953 C35.754056,18.6393953 36.9315902,18.6273539 37.2149836,18.3317108 C37.498377,18.0360677 37.498377,16.8511905 37.498377,16.8511905 C37.498377,16.8511905 37.498377,18.0327599 37.7907559,18.3317108 C38.0831347,18.6306617 39.2422566,18.6393953 39.2422566,18.6393953 C39.2422566,18.6393953 38.0831347,18.635485 37.7907559,18.9311005 C37.498377,19.226716 37.498377,20.3988095 37.498377,20.3988095 C37.498377,20.3988095 37.5128794,19.2228058 37.2149836,18.9311005 C36.9170879,18.6393953 35.754056,18.6393953 35.754056,18.6393953 Z" id="Rectangle-1397-Copy"></path>
                                </g>
                            </g>
                            <g id="Group-4" filter="url(#filter-13)" transform="translate(8.761062, 113.941176)">
                                <rect id="Rectangle-1307" fill="#FFBF00" x="0" y="0" width="148.938053" height="35.0588235" rx="3"></rect>
                                <text id="Well-done!" font-family="Roboto-Regular, Roboto" font-size="18.3787611" font-weight="normal" fill="#000000">
                                    <tspan x="32.8059181" y="24.3039216">Well done!</tspan>
                                </text>
                            </g>
                        </g>
                    </g>
                </g>
            </g>
        </g>
    </g>
</svg>