<?xml version="1.0" encoding="UTF-8" standalone="no"?>
<svg width="16px" height="18px" viewBox="0 0 16 18" version="1.1" xmlns="http://www.w3.org/2000/svg" xmlns:xlink="http://www.w3.org/1999/xlink">
    <!-- Generator: sketchtool 3.6.1 (26313) - http://www.bohemiancoding.com/sketch -->
    <title>28987041-9E88-45E8-8BC7-321E49676E0E</title>
    <desc>Created with sketchtool.</desc>
    <defs></defs>
    <g id="Facebook" stroke="none" stroke-width="1" fill="none" fill-rule="evenodd">
        <g id="main-1000" transform="translate(-10.000000, -22.000000)">
            <g id="Score" transform="translate(10.000000, 21.000000)">
                <g id="Group-5">
                    <g id="CreditIcon" transform="translate(0.000000, 1.000000)">
                        <ellipse id="Oval-23" fill="#E37F00" cx="7.875" cy="8.1" rx="7.875" ry="8.1"></ellipse>
                        <path d="M6.61992289,8.22047519 L5.55724617,12.8088019 L9.4418641,17.2821733 L9.7421793,17.5795788 L10.0454705,17.2853857 L14.133779,13.3197182 C15.0115919,12.4682379 14.9924118,11.8483891 14.1337793,10.9648753 L10.4318575,7.01577097 L10.1572408,7.30765414 L6.61992289,8.22047519 Z" id="Shape" fill="#A65C00"></path>
                        <ellipse id="Oval-23" stroke="#FEC600" stroke-width="3" cx="7.875" cy="9.9" rx="7.875" ry="8.1"></ellipse>
                        <path d="M8.02966309,13.6230469 C6.92109635,13.6230469 6.08071168,13.3154328 5.50848389,12.7001953 C4.93625609,12.0849579 4.65014648,11.20108 4.65014648,10.0485352 C4.65014648,8.89188875 4.95918474,7.9957063 5.57727051,7.35996094 C6.19535628,6.72421557 7.07461995,6.40634766 8.21508789,6.40634766 C9.00065497,6.40634766 9.74035298,6.58271308 10.4342041,6.93544922 L9.74633789,8.71347656 C9.46321473,8.58632749 9.20202756,8.48481483 8.96276855,8.40893555 C8.72350955,8.33305626 8.47428515,8.29511719 8.21508789,8.29511719 C7.83626113,8.29511719 7.54317324,8.44687348 7.33581543,8.75039063 C7.12845762,9.05390777 7.02478027,9.48251676 7.02478027,10.0362305 C7.02478027,11.151861 7.4255331,11.709668 8.22705078,11.709668 C8.91292661,11.709668 9.57087901,11.5045919 10.2009277,11.0944336 L10.2009277,13.0078125 C9.59879256,13.4179708 8.87504492,13.6230469 8.02966309,13.6230469 L8.02966309,13.6230469 Z" id="c" fill="#FEC600"></path>
                    </g>
                </g>
            </g>
        </g>
    </g>
</svg>