<?xml version="1.0" encoding="UTF-8" standalone="no"?>
<svg width="15px" height="17px" viewBox="0 0 15 17" version="1.1" xmlns="http://www.w3.org/2000/svg" xmlns:xlink="http://www.w3.org/1999/xlink">
    <!-- Generator: sketchtool 3.7 (28169) - http://www.bohemiancoding.com/sketch -->
    <title>D07B6A1F-2365-4127-8105-FBA7CA015E51</title>
    <desc>Created with sketchtool.</desc>
    <defs></defs>
    <g id="Facebook" stroke="none" stroke-width="1" fill="none" fill-rule="evenodd">
        <g id="main-1000-bidding" transform="translate(-502.000000, -383.000000)" fill="#FFFFFF">
            <g id="Group-20" transform="translate(129.000000, 171.000000)">
                <g id="Group-7" transform="translate(299.000000, 212.000000)">
                    <g id="Group-14">
                        <g id="time" transform="translate(74.000000, 0.000000)">
                            <g id="Layer_1">
                                <path d="M13.5485437,9.78571429 C13.5485437,13.1475723 10.8618581,15.834258 7.5,15.834258 C4.13814194,15.834258 1.45145631,13.1475723 1.45145631,9.78571429 C1.45145631,6.42385622 4.13814194,3.7371706 7.5,3.7371706 C10.8618581,3.7371706 13.5485437,6.42385622 13.5485437,9.78571429 L13.5485437,9.78571429 Z M14.5,9.78571429 C14.5,5.89838141 11.3873329,2.78571429 7.5,2.78571429 C3.61266713,2.78571429 0.5,5.89838141 0.5,9.78571429 C0.5,13.6730472 3.61266713,16.7857143 7.5,16.7857143 C11.3873329,16.7857143 14.5,13.6730472 14.5,9.78571429 L14.5,9.78571429 Z" id="Shape"></path>
                                <polygon id="Shape" points="5 1.5 10 1.5 10 0.5 5 0.5"></polygon>
                                <polygon id="Shape" points="7 5.57142857 7 11.6666667 8 11.6666667 8 5.57142857"></polygon>
                                <polygon id="Shape" points="12 3.69310872 13.9047619 5.6740611 14.625595 4.98095238 12.7208331 3"></polygon>
                            </g>
                        </g>
                    </g>
                </g>
            </g>
        </g>
    </g>
</svg>