<?xml version="1.0" encoding="UTF-8" standalone="no"?>
<svg width="16px" height="18px" viewBox="0 0 16 18" version="1.1" xmlns="http://www.w3.org/2000/svg" xmlns:xlink="http://www.w3.org/1999/xlink">
    <!-- Generator: sketchtool 3.6.1 (26313) - http://www.bohemiancoding.com/sketch -->
    <title>960DE738-D104-4D12-85BC-CB4A399744F1</title>
    <desc>Created with sketchtool.</desc>
    <defs></defs>
    <g id="Facebook" stroke="none" stroke-width="1" fill="none" fill-rule="evenodd">
        <g id="main-1000" transform="translate(-138.000000, -22.000000)">
            <g id="Score" transform="translate(10.000000, 21.000000)">
                <g id="Group-2" transform="translate(128.000000, 0.000000)">
                    <g id="TokenIcon" transform="translate(0.000000, 1.000000)">
                        <ellipse id="Oval-23" fill="#878787" cx="7.875" cy="8.1" rx="7.875" ry="8.1"></ellipse>
                        <path d="M4.63025741,8.10702328 L7.93843821,11.6160927 L6.73316686,14.37954 L8.89218531,16.8247078 L9.7421793,17.5795788 L10.0454705,17.2853857 L14.133779,13.3197182 C15.0115919,12.4682379 14.9924118,10.9497875 14.1337792,10.0662737 L11.1010262,6.3363762 L10.1572408,7.30765414 L4.63025741,8.10702328 Z" id="Shape" fill="#696969"></path>
                        <ellipse id="Oval-23" stroke="#E0E0E0" stroke-width="3" cx="7.875" cy="9.9" rx="7.875" ry="8.1"></ellipse>
                        <path d="M9.09980461,14.4 L6.70935583,14.4 L6.70935583,8.08953488 L4.63968751,8.08953488 L4.63968751,6.3 L11.0889243,6.3 L11.0889243,8.08953488 L9.09980461,8.08953488 L9.09980461,14.4 Z" id="T" fill="#DFDFDF"></path>
                    </g>
                </g>
            </g>
        </g>
    </g>
</svg>